<?xml version="1.0" encoding="UTF-8"?><svg id="Layer_1" xmlns="http://www.w3.org/2000/svg" xmlns:xlink="http://www.w3.org/1999/xlink" viewBox="0 0 199.89 188.48"><defs><style>.cls-1{fill:url(#linear-gradient-2);}.cls-2{fill:#fff;}.cls-3{fill:#cecccf;}.cls-4{fill:#8e1837;}.cls-5{fill:#e7e5e4;}.cls-6{clip-path:url(#clippath-1);}.cls-7{clip-path:url(#clippath);}.cls-8{fill:#f7f8f4;}.cls-9{fill:none;}.cls-10{fill:#7a7c7f;}.cls-11{fill:url(#linear-gradient);}.cls-12{fill:#231f20;}.cls-13{fill:#58595b;}</style><clipPath id="clippath"><path class="cls-9" d="M104.36,59.7c-2.12,.54-3.34,3-3,5.08,.14,.98,.62,1.88,1.37,2.53,1.49,1.28,3.81,.1,4.65-1.39,.41-.8,.57-1.71,.46-2.6-.02-.92-.31-1.81-.82-2.57-.5-.69-1.3-1.1-2.15-1.11-.17,0-.34,.02-.51,.05"/></clipPath><linearGradient id="linear-gradient" x1="-783.34" y1="46.61" x2="-780.67" y2="46.61" gradientTransform="translate(5454.9 -254.75) scale(6.84)" gradientUnits="userSpaceOnUse"><stop offset="0" stop-color="#b87d6d"/><stop offset=".47" stop-color="#b87d6d"/><stop offset=".51" stop-color="#a47063"/><stop offset=".58" stop-color="#8a6056"/><stop offset=".65" stop-color="#7a564e"/><stop offset=".7" stop-color="#75534b"/><stop offset="1" stop-color="#75534b"/></linearGradient><clipPath id="clippath-1"><path class="cls-9" d="M115.61,56.01c-.69,.07-1.19,.68-1.12,1.36,.01,.15,.06,.3,.12,.44,.14,.27,.31,.52,.52,.74-.38-.43-.47-1.04-.23-1.56,.33-.51,1.26-.46,1.77-.34,1.53,.33,3.6,2.27,3.24,3.95-.12,.48-.51,.84-1,.93,0,0,.14,0,.18,.05,.45,.06,.89-.19,1.09-.6,.79-1.6-.92-3.41-2.16-4.23-.65-.43-1.39-.69-2.17-.74h-.22"/></clipPath><linearGradient id="linear-gradient-2" x1="-887.51" y1="-33.58" x2="-884.83" y2="-33.58" gradientTransform="translate(297.63 -4690.64) rotate(-90) scale(5.36)" gradientUnits="userSpaceOnUse"><stop offset="0" stop-color="#b87d6d"/><stop offset=".59" stop-color="#b87d6d"/><stop offset=".64" stop-color="#a47063"/><stop offset=".73" stop-color="#8a6056"/><stop offset=".8" stop-color="#7a564e"/><stop offset=".86" stop-color="#75534b"/><stop offset="1" stop-color="#75534b"/></linearGradient></defs><path class="cls-12" d="M145.81,49.02c-.15-2.73-.51-5.44-.81-8.15-.28-2.5-1-7.69-2.93-9.23-1.12-1-3-.35-3.63,.88-.29,.53-.6,1.05-.9,1.58-.6,1.13-1.27,2.23-2,3.29-1.9,2.56-3.76,5.15-5.8,7.6-.22,.28-.47,.53-.7,.8-2.34,2.75-5.28,4.92-8.59,6.36-.37,.19-.77,.3-1.19,.33-.12-.11-.25-.22-.38-.35-.84-.84-1.66-1.7-2.52-2.53-1.51-1.53-2.93-3.15-4.25-4.85-.29-.33-.46-.74-.49-1.17-.04-.78-.53-1.48-1.25-1.79-.13-.06-.29-.06-.42,0-.05-.19-.13-.38-.22-.56-.11-.17-.25-.31-.41-.43-.33-.29-.75-.46-1.19-.49-.11-.69-.58-1.26-1.24-1.49-.25-.11-.51-.21-.78-.27-1.14-.26-2.31-.34-3.47-.24-1.31,.09-2.63,.11-3.94,.06-5.49-.24-10.96,.76-16,2.94-4.39,1.95-8.84,4.7-11.47,8.66-.22,.34-.49,.64-.8,.9-.77,.62-1.48,1.31-2.11,2.07-.3,.35-.56,.72-.78,1.12-.44,.65-.44,1.5,0,2.15,0,.05,0,.09,0,.14-.11,.34-.35,.61-.67,.77-.55,.31-1.08,.66-1.62,1-.67,.43-1.37,.83-2.08,1.19-.14-.17-.3-.33-.46-.48-.16-.1-.34-.14-.53-.13-.26,.03-.52,.09-.77,.18-.05,0-.17,.09-.22,.07s-.1-.14-.14-.18c-.09-.14-.23-.25-.38-.31-.17-.05-.34-.05-.51,0-.37,.19-.7,.44-1,.73-.12,0-.24,0-.36,0-1.03-.26-2.04-.62-3-1.07-5-2.35-8.26-7.22-10.22-12.23-1.78-4.77-1.69-9.9-1.9-14.92-.13-6.19-1.45-12.31-7.57-15.19-2.29-1.08-4.85-1.48-7.36-1.16-.37,.05-.76,.07-1.12,.13-2.2-2.26-5.36-3.32-8.48-2.84-.63,.12-1.28,.26-1.94,.36-.04-.32-.31-.56-.63-.56-.17,0-.33,.07-.45,.19h0c-.07-.04-.16-.07-.24-.08-.16-.04-.34-.02-.49,.06h0c-.08-.09-.19-.16-.31-.19-.13-.04-.28-.04-.41,0-.08-.13-.21-.23-.36-.27-.3-.07-.6,.07-.74,.34h0c.05-.21,.05-.44,0-.65-.13-.46-.4-.86-.76-1.17-.26-.24-.54-.46-.83-.66-1.06-.63-1.82-1.66-2.11-2.86-.09-.67-.02-1.36,.2-2-.25,.25-.43,.58-.5,.93-.15,.56-.2,1.14-.16,1.72-.2-.36-.38-.74-.54-1.12-.79-1.9-1.29-3.9-1.48-5.95-.23,.37-.37,.79-.4,1.23-.02,.43-.02,.87,0,1.3,.01,.89-.05,1.77-.19,2.65-.23-.61-.32-1.27-.26-1.92,0,.12-.16,.3-.21,.41-.06,.14-.11,.29-.15,.44-.1,.33-.18,.66-.25,1-.13,.66-.16,1.33-.08,2,.11,.72,.31,1.41,.62,2.07-.26-.27-.53-.52-.83-.75-.45-.31-.93-.56-1.44-.76,.26,.16,.48,.37,.64,.63,.18,.22,.37,.43,.58,.62,.69,.73,1.39,1.43,2.09,2.14,.83,.88,1.81,1.6,2.9,2.11,.4,.19,.83,.29,1.27,.31,.44-.02,.87-.09,1.3-.2h0c-.12,.29,0,.62,.27,.78,.21,.11,.45,.11,.66,0,0,.03,0,.05,0,.08,.08,.14,.22,.25,.38,.29,.16,.05,.34,.03,.49-.06,.11-.07,.2-.16,.25-.28,.08,.11,.2,.18,.33,.22,.16,.04,.34,.02,.49-.06,.14-.08,.25-.22,.29-.38v-.05h0c.24,.25,.64,.25,.89,0,.12-.12,.19-.29,.19-.46v-.24l1.61-.33c2.83-.58,5.77,.24,7.89,2.2,0,0-.2,.08-.22,.09l-1,.33c-1.74,.58-3.38,1.39-4.9,2.41l-.38,.23v-.07c-.04-.16-.15-.3-.29-.38-.15-.09-.33-.11-.49-.06-.16,.04-.29,.15-.38,.29v.05h0c-.3-.17-.69-.07-.86,.23h0c-.15-.12-.36-.16-.55-.11-.14,.04-.26,.13-.34,.25-.28-.21-.67-.15-.88,.13-.07,.09-.11,.2-.12,.31-.25-.19-.42-.49-.72-.59-.55-.21-1.14-.25-1.72-.14-.56,.14-1.13,.22-1.7,.26-.54,.04-1.07,.04-1.61,0-.53-.04-1.02-.27-1.39-.65,.1,.25,.23,.48,.38,.7,.11,.2,.29,.35,.5,.43-.54-.13-1.1-.22-1.66-.25-.57-.03-1.13,.09-1.63,.36,.52-.07,1.04,0,1.53,.18,.55,.14,1.12,.21,1.69,.21-.48,.06-.98,.06-1.46,0l-1-.15c-.86-.09-1.74-.04-2.58,.17-1.09,.28-2.08,.87-2.86,1.69,.11-.11,.58-.13,.73-.15,.85-.1,1.7,.02,2.49,.35,.76,.35,1.58,.56,2.41,.64-.9,.29-1.88,.29-2.78,0,.66,.31,1.38,.46,2.11,.45-.62,.22-1.29,.3-1.95,.24,.22,.06,.44,.15,.64,.26,.23,.08,.46,.14,.7,.19,.49,.1,.98,.15,1.48,.14,.5,0,.99-.07,1.47-.19,.49-.12,.93-.35,1.41-.48-.49,.61-.89,1.28-1.19,2,.11-.32,.63-.61,.87-.82,.32-.29,.68-.54,1.07-.73,.82-.41,1.67-.74,2.54-1,.36-.1,.74-.2,1.09-.32,.35-.11,.68-.26,1-.44,.17-.09,.32-.21,.45-.35l.05-.06h0c.1,.33,.44,.53,.78,.44,.15-.05,.28-.15,.36-.28,.1,.06,.21,.09,.32,.09,.17,0,.33-.06,.45-.18,.1-.1,.16-.23,.18-.37,.09,.05,.18,.07,.28,.07,.17,0,.33-.06,.45-.18,.06-.06,.1-.13,.14-.21,.08,.04,.18,.06,.27,.06,.17,0,.33-.06,.45-.18,.12-.12,.19-.28,.19-.45,0-.2,0-.39-.05-.59,.28-.15,.52-.35,.79-.52,1.77-1.18,3.73-2.06,5.79-2.59,.18-.03,.37-.05,.55-.06,1.56,1.75,2.77,3.79,3.56,6,.17,.47,.34,.95,.5,1.44,.18,.47,.32,.96,.42,1.46-.24-.27-.52-.51-.83-.69-.72-.56-1.53-.99-2.39-1.29-3.71-1.32-7.7,0-10.92,2-.3,.18-.58,.38-.87,.58l-.14-.23c-.08-.14-.22-.25-.38-.29-.16-.04-.34-.02-.49,.06-.14,.08-.25,.22-.29,.38,0,.04,0,.09,0,.13-.33-.08-.67,.12-.76,.45h0c-.16-.04-.34-.02-.49,.06-.14,.08-.24,.21-.29,.37-.1-.05-.2-.08-.31-.08-.17,0-.33,.07-.45,.19-.12,.12-.18,.28-.18,.45v.17c.03,.11,.08,.2,.16,.28h-.09c-.41-.02-.82-.02-1.23,0-.41,.1-.78,.3-1.07,.6-.88,.81-1.66,1.71-2.34,2.69-.34,.51-.76,.95-1.26,1.3-.48,.41-1.07,.66-1.7,.72,.18,.16,.42,.22,.65,.19,.23-.04,.45-.1,.66-.2l.59-.24c-.25,.29-.44,.63-.56,1-.1,.39-.16,.79-.18,1.19-.03,.61-.16,1.21-.38,1.77-.18,.5-.54,.91-1,1.16,.46-.17,.87-.46,1.18-.85,.31-.38,.53-.83,.67-1.3-.15,1.72,.36,3.43,1.43,4.78-.4-1.32-.29-2.75,.31-4,.06,.92,.06,1.84,0,2.76,0,.58,0,1.16-.08,1.73-.01,.56-.17,1.11-.46,1.59,.72-.91,1.26-1.97,1.57-3.09,.41-1.17,.7-2.39,.85-3.62,.03,.76,.22,1.51,.55,2.2-.22-1.01-.18-2.06,.12-3.05,.36-.93,.98-1.74,1.77-2.34,.46-.36,.86-.79,1.19-1.27,.38-.49,.5-1.12,.35-1.72-.03-.12-.05-.25-.06-.37h.17c.17,0,.33-.06,.45-.18,.09-.09,.15-.21,.18-.33,.16,0,.31-.07,.42-.18,.1-.11,.16-.24,.17-.39,.14,.02,.27-.01,.39-.08,.14-.08,.25-.22,.29-.38,0-.04,0-.08,0-.12,.32,.06,.63-.14,.72-.45,.04-.17,.02-.34-.06-.49l-.2-.33c4.55-3.15,10.42-4.67,14.71-.13,.21,.22,.34,.5,.4,.8,.29,1.23,.6,2.46,.89,3.69,.99,4.27,2.16,8.49,3.49,12.66,.68,2.18,1.49,4.31,2.44,6.38,1.39,3,2.85,6,5.39,8.18,2.68,2.26,5.91,3.77,9.36,4.39,.06,0,0,.15,0,.23,.06,.32,.35,.55,.68,.52,.12,0,.25-.12,.34-.09s.26,.26,.34,.34,.27,.32,.31,.32c-1.02,.11-2.04-.02-3-.38-3.33-1.11-6.33-3.05-8.71-5.63-1.05-1.04-1.96-2.21-2.72-3.48-1.13-1.68-2.25-3.36-3.32-5.08-1.25-2-2.45-4.08-3.68-6.11-1.19-2.03-2.57-3.95-4.12-5.72-1.09-1.27-2.38-2.35-3.81-3.22-2.17-1.34-4.86-1.55-7.21-.55-1.39,.56-2.66,1.37-3.77,2.38-.36,.32-.72,.65-1.07,1l-.32-.21c-.15-.08-.33-.11-.49-.06-.34,.09-.53,.44-.44,.77h0v.07h0c-.34-.09-.68,.11-.78,.44,.18,.06,.27,.26,.21,.43-.06,.18-.26,.27-.43,.21-.03-.01-.07-.03-.1-.05-.14,.09-.25,.22-.29,.38-.02,.11-.02,.21,0,.32-.28,.07-.49,.33-.49,.62,0,.28,.19,.52,.45,.6-.1,0-.23,0-.32,.07-.34,.11-.65,.31-.9,.56-.31,.35-.56,.75-.73,1.19-.23,.62-.35,1.27-.36,1.93-.09,1.49-.32,3.1-1.59,4.08,.86-.21,1.58-.77,2-1.55-.02,.15-.02,.29,0,.44v.53c-.03,1.73,.93,3.32,2.47,4.1,.32,.17,.67,.3,1,.47,.59,.33,1.13,.73,1.61,1.21-.1-.26-.25-.5-.43-.71-.36-.49-.61-1.05-.73-1.64,.26,.46,.6,.87,1,1.21,.33,.24,.71,.37,1,.61l-1.11-1.24c.67,.45,1.31,.95,1.91,1.5,.44,.47,.91,.9,1.42,1.29-.08-.21-.11-.3-.14-.39-.41-.9-.95-1.73-1.58-2.49-.5-.65-1-1.3-1.51-1.92-.31-.31-.55-.67-.73-1.07,.07,.19,.38,.41,.53,.54,.34,.28,.7,.52,1.08,.74,.4,.26,.83,.49,1.27,.68-.84-.53-1.52-1.26-2-2.12-.4-.84-.59-1.76-.54-2.69,0-.47,.14-.91,.18-1.37s.08-1,.09-1.56c.03-.71-.22-1.4-.71-1.92-.11-.1-.22-.17-.31-.24h0c.4-.26,.74-.6,1-1,.02-.1,.02-.21,0-.31,.15-.05,.27-.15,.35-.28-.14-.31,0-.67,.3-.81,.03-.01,.06-.02,.09-.03,.08-.15,.11-.33,.06-.49-.05-.15-.14-.27-.26-.36,1.48-1.67,3.41-2.87,5.56-3.46,5.38-1.4,9.59,4.28,12.18,8.22,4.66,7.18,8.78,16.67,16.61,20.68,1.53,.83,3.19,1.39,4.91,1.64,.45,.06,.91,.08,1.36,.06,.42-.02,.84-.02,1.26,0-.06,.3,.11,.61,.4,.71,.29,.09,.61-.02,.78-.27,.16,.24,.43,.37,.71,.35,.17,0,.33-.11,.38-.28,1.44,.35,2.92,.51,4.39,.74,.19,0,.4,0,.55,.23-.89,1.14-3.28,3.61-4.74,3.72-.7,.07-1.4,.22-2.11,.26-.71,.05-1.41,.19-2.08,.41-2.53,.76-4.1,3-5.45,5.15-.59,1-1.11,2.05-1.56,3.12-.13,.35-.42,.63-.78,.75-5,1.87-10.21,3.15-15.51,3.79-7.19,1-14.66,1.74-21.18,5.16-5.64,2.92-10.18,8.44-10.84,14.88H0c.16,.1,.33,.19,.51,.27,1.74,.75,3.13,2.13,3.9,3.86,.69,1.3,1.25,2.66,1.67,4.07,1.08,3.64,2.11,7.29,3.06,11,1.46,5.9,3.64,12,8.42,16.07,1.97,1.73,4.32,2.96,6.86,3.58,.42,.1,.85,.12,1.28,.07,.31-.02,.59-.18,.77-.43,2.9-3.81,5.77-7.63,8.66-11.44,.14-.18,.28-.37,.54-.38,2.3,.85,7.94,4.23,9,5.39-2.12,2.46-4.46,4.71-7,6.73-2.77,2.32-5.48,4.73-8.32,7-.36,.27-.65,.61-.86,1-.65,1.59-.74,3.35-.28,5,1.59,7,6,12.93,11.15,17.74,15.58,14.79,39.09,19.13,59.66,14.5l-1.13-1.8c-2.57-3.87-3.11-8.75-1.43-13.09,1.56-4.56,4.92-8,8.19-11.45,4.44-4.5,9.11-8.77,14-12.79,3.44-2.67,6.72-5.53,9.83-8.58,1.39-1.49,2.86-3.45,2.67-5.49-.09-.7-.57-1.29-1.23-1.52-.38-.2-.78-.36-1.19-.49-.64-.23-1.26-.53-1.83-.9-2.77-1.87-4.88-4.59-6-7.74-.26-.85-.46-1.68,.26-2.39,5.46-5.14,10.23-10.97,14.19-17.34,1.82-2.98,3.37-6.13,4.62-9.39,2.27-5.48,3.83-11.22,4.65-17.09,1.28-9.13,1.66-18.36,1.15-27.57m-82.35,10.94c.89-.48,1.76-1,2.63-1.51l.86-.5c0,.61,.15,1.21,.44,1.75,0,.06-.52,.42-.59,.46-.8,.51-1.65,.95-2.53,1.3-.06-.26-.24-.48-.49-.59-.26-.09-.53-.09-.79,0-.24,.03-.46,.13-.64,.28-.06-.11-.14-.2-.24-.27,.42-.35,.87-.66,1.35-.93m-28.87-28.49c-.27-1.06-.54-2.11-.72-3.19-.05-.26-.11-.52-.19-.78,2.15,3.15,2.89,7,3.36,10.73,.24,1.32,.4,2.66,.48,4-.9-3.62-2-7.17-2.92-10.8m20.74,28.53c-.18,.14-.35,.29-.5,.47-.12,.13-.21,.28-.31,.43-2.46,0-6.78-3.17-8.65-4.8-5.46-4.59-6.9-9.3-7.8-16.14-.61-4.8-1.26-10-4.42-13.84-.36-.43-.61-.93-.73-1.47-.33-1.3-.8-2.55-1.25-3.82-.84-1.96-1.93-3.81-3.24-5.5,5-.73,10.38,1.45,12.7,6.13,1.93,3.74,1.81,8.07,2,12.17,.18,4.93,.46,9.94,2.67,14.44,2.54,5.46,6.88,10.37,12.94,11.78-.48,.22-1,.36-1.47,.6,.01-.13-.09-.25-.22-.27-.13-.01-.26,.01-.37,.07-.06-.66-1-.52-1.35-.25m4.47,1.79c-.14-.07-.29-.11-.44-.13-.48-.16-1.02-.03-1.38,.32-.12,.12-.21,.26-.33,.37h-.07l-.74-.33c.11-.18,.23-.35,.36-.51,.11-.13,.25-.24,.4-.31,.29-.14,.59-.25,.9-.33,.22-.06,.17,0,.24,.15,.05,.12,.16,.2,.28,.24,.19,.05,.39-.02,.52-.17,0,.24,.18,.45,.43,.45,.02,0,.04,0,.06,0,.53-.05,1.03-.26,1.43-.6,.13,.19,.27,.37,.42,.54,0,0-.1,.32-.13,.37s-.12,.24-.19,.36c-.04,.08-.09,.15-.15,.22-.21,.24-.64,.09-.93,.16l-.41-.56c-.06-.09-.13-.17-.22-.24m5.85,1.93c-1.89,.13-3.8,.08-5.68-.17,.36-.41,.95-.29,1.43-.32,.01,.14,.11,.27,.24,.32,.13,.04,.28,.04,.41,0,.28,0,.53-.15,.68-.38,.01-.03,.03-.05,.05-.07h.07c1.06-.25,2.14-.4,3.23-.45h.42c-.23,.39-.52,.75-.86,1.06m1.93-2.42c-.49,.15-1,.23-1.52,.24,.1,0,.31-.16,.39-.2l.44-.17c.26-.09,.48-.21,.75-.28,0,.13,0,.27-.07,.4"/><path class="cls-12" d="M176.15,67.08c-13.11,0-23.74,10.63-23.74,23.74,0,13.11,10.63,23.74,23.74,23.74,13.11,0,23.74-10.63,23.74-23.74h0c0-13.11-10.63-23.74-23.74-23.74"/><path class="cls-5" d="M122.08,127.57c.81,1.16,1.76,2.22,2.81,3.17,.19,.17,.37,.34,.54,.53,.11,.11,.1,.29,0,.4-.02,.02-.05,.04-.08,.05-.14,.06-.28,.11-.43,.13-3.38,.54-8.93,1-12-.58-.37-.15-.55-.57-.4-.94,0-.02,.02-.04,.03-.06,.13-.35,.31-.69,.52-1,1.7-2.45,3.61-4.75,5.71-6.88,.27-.31,.58-.58,.93-.8,.1,.52,.19,.94,.28,1.36,.38,1.66,1.1,3.22,2.12,4.58"/><path class="cls-5" d="M32.7,148.32l.6-.55c1-.88,2-1.77,3-2.67,1.65-1.5,3.22-3,4.73-4.66s2.92-3.45,4.41-5.14c4.32,3.27,11.48,10.51,13.06,15.68,.14,.75,.17,1.1-.83,1.4-3.56,1.07-7.38,.63-10.94-.24-4.19-1-7.32-2.77-12.67-3.63-.53-.05-1.06-.05-1.59,0l.2-.17"/><path class="cls-3" d="M58.53,150.97c-1.06-2.76-2.62-5.3-4.6-7.5-2.21,4.63-6.6,6.87-11.38,7.36,1.37,.48,2.72,.93,4.21,1.3,3.56,.86,7.37,1.31,10.94,.23,1-.3,1-.65,.83-1.4"/><path class="cls-8" d="M48.61,137.93c-1.12-1-2.2-1.92-3.14-2.64-1.49,1.7-2.86,3.49-4.41,5.14s-3.09,3.17-4.73,4.66c-1,.9-2,1.78-3,2.67-.2,.18-.39,.37-.6,.55l-.2,.17c.53-.05,1.06-.05,1.59,0,.88,.14,1.7,.31,2.47,.48l.25-.12c1.96-1.04,3.85-2.22,5.65-3.51,2.26-1.55,4.47-3.22,5.78-5.75,.3-.51,.42-1.1,.37-1.69"/><path class="cls-5" d="M44.56,136.36c-1.15,1.37-2.27,2.77-3.49,4.08-.89,1-1.81,1.89-2.74,2.8,3.4-2.39,6.43-5.19,6.24-6.87"/><path class="cls-5" d="M27.52,137.54c-.32-3.18-1.77-5.71-2.44-8.73-.11-.45-.14-.92-.1-1.38,.39-.57,2.27-.19,2.91-.13,1.99,.19,3.95,.59,5.85,1.19,.29,.04,.55,.19,.73,.42-2.06,3.07-4.38,5.96-6.94,8.63"/><path class="cls-5" d="M145.37,59.58c-.07,9.11-1.27,18.18-3.58,27-1.41,4.65-3.24,9.17-5.47,13.49-1.3,2.46-2.89,4.76-4.39,7.1-2.34,3.37-5.03,6.47-8.04,9.25-2.49,2.46-5.14,4.75-7.49,7.35-1.29,1.36-2.47,2.83-3.51,4.39,.33-1.63,.79-3.23,1.36-4.79,.9-2.84,1.9-5.65,2.63-8.54,.63-2.71,1.12-5.44,1.64-8.16,.45-2.14,.78-4.3,1-6.47l-2.44,11.84c-1.12,5.49-3.18,10.7-5,16-.25,.71-.51,1.43-.74,2.15-.1,.36-.16,.73-.16,1.11-.07,.29,.05,.59,.3,.75,.38,.21,.78,.37,1.19,.48,.51,.16,1.03,.29,1.56,.38,1.98,.38,3.99,.52,6,.42,2-.13,4.08-.34,6.12-.49,.58-.03,1.17,.01,1.74,.13,.24,.06,.48,.16,.7,.28,.68,.33,1.05,1.09,.9,1.83-.08,.45-.24,.88-.47,1.27-1.02,1.57-2.28,2.98-3.73,4.17-4.16,4-8.86,7.39-13.14,11.27-2.71,2.32-5.37,4.7-7.87,7.25-4.28,4.27-8.57,9.1-9.87,15.18-.72,3.83-.1,7.79,1.78,11.21-4.57,.87-9.22,1.29-13.87,1.28-2.48,.04-4.96-.1-7.42-.4-10.44-1.14-20.76-4.57-29.29-10.79-2.41-1.77-4.67-3.73-6.77-5.85-4.3-4.3-8-9.56-9.27-15.58-.16-.82-.23-1.65-.21-2.49,0-1.35,1.22-1.53,2.3-1.63,1.14-.03,2.27,.09,3.38,.35,4.31,.92,8.4,2.62,12.67,3.64,1.67,.42,3.37,.68,5.08,.79,1.47,.12,2.94,0,4.37-.36,1.33-.18,2.39-1.18,2.66-2.49,.66-2.86,1.16-5.76,1.51-8.67,.22-1.75,.47-3.51,.77-5.25,1.07-7.43,2.64-14.78,4.69-22,1.34-4.38,3.05-8.65,5.12-12.74-.59,.88-1.1,1.8-1.54,2.76l-1.28,2.82c-2.51,5.67-4.49,11.56-5.92,17.6-1.47,6-3.43,16.27-4.43,21.58-.09-.3-.23-.59-.4-.86-.61-1.04-1.28-2.04-2-3-4.16-5.6-9.38-10.34-15.36-13.93-3.63-2.23-7.62-3.82-11.8-4.67-.45-.09-.9-.16-1.35-.19h-.16l.13-.13c4.24-3.16,8.19-6.7,11.79-10.58,3.08-3.31,5.86-6.87,8.32-10.66-2.7,3.67-5.68,7.13-8.91,10.34-2.75,2.87-5.79,5.45-9.05,7.72-1.6,1.07-3.27,2.03-5,2.88-.52,.25-1.03,.53-1.51,.85-.05,.31-.05,.62,0,.93,.3,1.82,.76,3.62,1.37,5.36,.52,1.59,1,3.19,1.36,4.81,.1,.52,.14,1.06,.12,1.59,0,.95-.76,1.73-1.71,1.73-.03,0-.07,0-.1,0-.99-.02-1.96-.26-2.86-.68-4.94-2.38-8.09-7.25-9.95-12.25-1.89-5.53-3.08-11.27-4.85-16.84-.48-1.58-1.12-3.1-1.92-4.54-.8-1.56-2.02-2.86-3.52-3.76,1-5.47,4.56-10.68,9.75-13,1.45-.61,3.03-.86,4.6-.73,1.13,.08,2.26,.22,3.38,.42,3.24,.62,6.25,2,9.33,3.14l5.83,2.15c1.17,.41,2.39,.68,3.62,.8,.2,.02,.41,.02,.61,0,2.05-.06,4.07-.54,5.94-1.4,5.47-2.68,10.63-6,16.19-8.5,9.71-4.66,20.34-7.92,31.21-7.35,3.71,.19,7.41,.55,11.11,.9,2.52,.24,5,.51,7.56,.57,1.67,.03,3.34-.02,5-.17,1.34-.12,2.64-.54,3.79-1.24,4.32-2.44,6.73-6.94,8.41-11.44,1.05-2.72,1.93-5.49,2.73-8.29,1.08-3.67,2-7.38,2.9-11.09,1.04-3.67,2.38-7.25,4-10.71,.3-.59,.6-1.17,.95-1.73,.19-.32,.43-.62,.71-.88,1.23-1.17,2.51-.44,3.22,.92,.18,.32,.33,.65,.45,1,.59,1.67,.99,3.4,1.19,5.16,.06,1.06,.33,2.1,.44,3.15s.27,2.31,.39,3.47c.35,4.03,.48,8.08,.39,12.13"/><path class="cls-3" d="M104.1,106.46c2.57-3.9,4.67-8.09,7.06-12.11,1.89-3.32,4-6.44,5.84-9.75,1.71-3.13,3.58-6.16,5.61-9.09-.89,.9-1.9,1.68-3,2.32-1.15,.7-2.45,1.13-3.8,1.24-1.66,.15-3.33,.21-5,.17-2.53-.05-5-.33-7.56-.57-3.7-.36-7.4-.71-11.11-.9-10.87-.56-21.5,2.7-31.21,7.35-5.56,2.52-10.72,5.82-16.19,8.5-1.87,.86-3.89,1.33-5.94,1.39-.2,.02-.41,.02-.61,0-1.23-.12-2.45-.39-3.62-.8l-5.83-2.15c-3.08-1.13-6.09-2.52-9.33-3.14-1.12-.21-2.25-.35-3.38-.43-1.57-.13-3.14,.13-4.59,.74-5.19,2.26-8.7,7.47-9.75,12.93h0c1.49,.9,2.7,2.2,3.49,3.75,.8,1.44,1.44,2.96,1.92,4.54,1.77,5.57,3,11.31,4.85,16.84,1.86,5,5,9.87,9.95,12.25,.89,.43,1.87,.66,2.86,.68,.95,.04,1.76-.69,1.81-1.65,0-.03,0-.05,0-.08,.02-.53-.02-1.07-.12-1.59-.37-1.63-.85-3.23-1.36-4.81-.61-1.74-1.07-3.54-1.37-5.36-.05-.31-.05-.62,0-.93,.48-.32,.99-.6,1.51-.85,1.73-.85,3.4-1.82,5-2.89,3.27-2.27,6.3-4.85,9.06-7.72,3.23-3.21,6.21-6.67,8.91-10.34-2.46,3.79-5.24,7.36-8.32,10.66-3.6,3.88-7.55,7.42-11.79,10.58,0,0-.14,.08-.14,.13s.12,0,.17,0c.45,.03,.9,.09,1.34,.19,4.18,.85,8.17,2.43,11.8,4.67,5.98,3.59,11.2,8.33,15.36,13.93,.72,.96,1.39,1.96,2,3,.17,.27,.31,.56,.4,.86,1-5.3,3-15.57,4.44-21.58,1.4-6.04,3.35-11.94,5.83-17.62l1.3-2.91c.44-.96,.95-1.88,1.54-2.76-2.07,4.09-3.78,8.35-5.12,12.74-2.05,7.22-3.62,14.57-4.69,22-.3,1.74-.54,3.5-.77,5.26-.35,2.91-.86,5.81-1.51,8.67-.27,1.31-1.33,2.31-2.66,2.49-1.43,.36-2.9,.48-4.37,.36-1.71-.11-3.41-.37-5.08-.79-4.28-1-8.37-2.72-12.68-3.64-1.11-.26-2.24-.38-3.38-.35-1.09,.09-2.31,.27-2.3,1.63-.03,.83,.04,1.67,.2,2.49,1.32,6,5,11.28,9.27,15.58,2.1,2.12,4.37,4.08,6.78,5.85,7.29,5.17,15.66,8.62,24.48,10.09-.04-.13-.09-.25-.15-.36-4.4-10.26-5-21.41-5.73-32.35-.84-16.35,1-33.56,9.66-47.79,5.14-8.7,13-16.06,22.57-19.39-6.29,6.19-10.25,14.4-12.85,22.83,2.69-5.63,6.19-10.83,10.38-15.45,2.22-2.69,4.82-5.05,7.71-7,2.38-1.41,4.9-2.57,7.51-3.47,.8-.32,1.64-.57,2.49-.73,3.18,3.57-.32,10.29-2.09,13.94s-3.79,7.17-5.75,10.72"/><path class="cls-3" d="M144.99,47.45c-.12-1.16-.26-2.31-.39-3.47s-.39-2.09-.44-3.15c-.2-1.76-.6-3.49-1.19-5.16-.12-.35-.27-.68-.45-1-.71-1.36-2-2.1-3.22-.93-.28,.26-.51,.56-.71,.88-.34,.56-.65,1.15-.95,1.73-1.62,3.46-2.95,7.04-4,10.71-.93,3.71-1.82,7.42-2.9,11.09-.8,2.8-1.68,5.57-2.73,8.29-.38,1-.79,2-1.26,3,.22-.44,.46-.88,.71-1.31,1.7-2.71,2.66-5.77,4.2-8.56,1.37-2.48,2.9-4.76,5.46-6.22,1.07-.79,2.48-.95,3.69-.41,1.25,.9,2.15,2.21,2.53,3.7,.48,1.43,.88,2.89,1.21,4.36,.33,2.36,.46,4.74,.37,7.12-.1,.81-.15,1.62-.16,2.43,.37-3.64,.57-7.3,.64-10.95,.09-4.05-.04-8.1-.39-12.13"/><path class="cls-3" d="M136.99,98.65c-1.67,2.68-3.65,5.15-5.9,7.36-2.16,2-4.71,2.72-6.82,1.77-2.33-1.03-3.69-3.48-3.33-6,.41-2.78,1.01-5.54,1.79-8.24,.29-1.12,.59-2.23,.85-3.36l2.93-12.55c-2.53,7.88-5.28,15.67-7.12,23.74l-.07,.32c-.21,1.67-.52,3.33-.84,5-.52,2.73-1,5.46-1.64,8.16-.73,2.88-1.72,5.7-2.63,8.54-.57,1.56-1.03,3.16-1.36,4.79,1.04-1.56,2.22-3.03,3.51-4.39,2.34-2.6,5-4.89,7.49-7.35,3.02-2.77,5.73-5.87,8.08-9.23,1.49-2.35,3.09-4.64,4.39-7.1,.24-.47,.48-.95,.71-1.42h0"/><path class="cls-3" d="M128.79,133.23c-.22-.12-.46-.22-.7-.28-.57-.12-1.16-.16-1.74-.13-2,.16-4.08,.36-6.12,.49-2.01,.1-4.02-.04-6-.42-.53-.09-1.05-.22-1.56-.38-.41-.11-.81-.27-1.19-.48-.25-.16-.37-.46-.3-.75v-.19c-.09,.18-.17,.36-.24,.55-.3,.79-.43,1.61-.68,2.53-.36,1.33,.37,1.8,1.4,2,1.62,.32,3.27,.57,4.91,.77,3,.35,5.55,1.29,6.84,4.32,.16,.37,.16,.74,.3,.92,.61-.55,1.22-1.11,1.82-1.68,1.45-1.19,2.71-2.6,3.73-4.17,.23-.39,.39-.82,.47-1.27,.15-.74-.22-1.5-.9-1.83"/><path class="cls-3" d="M102.57,160.82c-4.16-5.26-6.34-11.42-8.11-17.77-1.35-6.28-1.96-12.69-1.82-19.11-1.5,5.24-1.78,10.2-2.26,15.11-.27,2.73-.47,5.46-.59,8.2-.41,9.68-.18,19.3,2.1,28.73,.59,2.46,1.36,4.88,2.33,7.22,.28,.84,.61,1.66,1,2.45l1.18-.21c-1.88-3.42-2.5-7.38-1.78-11.21,1.11-5.21,4.41-9.5,8-13.3l-.07-.1"/><path class="cls-3" d="M123.75,74.25c-.69,1.58-1.44,3.13-2.14,4.7l-3.56,8c.59-1.14,1.18-2.28,1.76-3.43,1.01-2,2.01-4,3-6,1-2,2-4.06,2.86-6.15-.56,.99-1.21,1.94-1.93,2.83"/><path class="cls-5" d="M47.83,107.6l-1.24,1.22c-2.54,2.57-5.21,5.01-8,7.3l-1.31,1.07c-2.9,2.9-6.01,5.57-9.31,8,0,0-.14,.08-.13,.13s.12,0,.16,0c.45,.03,.91,.09,1.35,.19,4.18,.85,8.17,2.43,11.8,4.67,3.7,2.16,7.1,4.81,10.09,7.88,5.09-4.94,7.79-12.15,9.91-18.77,2.7-8.61,6.05-17.01,10-25.13,.5-1,1.09-2,1.72-3.11-4.28,1-7.85,3.07-11.35,5.28-4.96,3.2-9.55,6.95-13.68,11.16"/><path class="cls-8" d="M41.17,130.29l.56,.32c.24-.4,.42-.83,.68-1.25,.54-.84,1.31-1.57,1.9-2.37,4.4-5.75,8.41-11.79,12-18.08,.49-.89,.96-1.78,1.42-2.68,.46-.89,.9-1.79,1.35-2.69-.71,1.11-1.52,2.15-2.43,3.1-.85,1.07-1.7,2.14-2.56,3.2-1.72,2.11-3.48,4.19-5.32,6.19-3.66,4.08-7.79,7.7-12.32,10.79l-1,.63c1.97,.83,3.88,1.78,5.72,2.86"/><path class="cls-5" d="M26.82,121.73c2.08-1.75,4-3.63,6.06-5.43,2.03-1.99,3.91-4.13,5.64-6.38,.23-.25,.43-.52,.62-.8,.05-.08,.1-.19,0-.27-.05-.06-.12-.09-.2-.09-3.64-.38-6.58-2.41-9.89-3.83-4.51-2-9.12-3.78-14.16-2.89-3.63,.64-7.33,1.92-8.94,5.45v.06c.44,.95,.81,1.93,1.11,2.93,1.77,5.57,3,11.31,4.85,16.84,.4,1.08,.86,2.15,1.38,3.18,4.87-2.31,9.41-5.26,13.51-8.76"/><path class="cls-5" d="M16.38,87.22c.87-.46,1.81-.79,2.77-1,4.59-1.11,9.39-1.55,14-2.25,4.84-.71,9.58-1.97,14.14-3.75-.02,.13-.04,.27-.07,.4-.74,2.23-1.46,4.47-2.21,6.69-.64,1.92-1.72,4.25-3.4,5.45-2.71,1.77-6.1,.62-8.89-.33-1.84-.63-3.66-1.32-5.48-2-3.46-1.27-7.09-3.1-10.85-3.07-.21,0-.24,0,0-.14"/><path class="cls-8" d="M33.19,83.97c-4.65,.7-9.45,1.15-14,2.25-.96,.21-1.9,.54-2.77,1-.19,.1-.16,.14,0,.14,1.51,.01,3.01,.25,4.45,.7h0c4.93-.26,9.83,1,14.79,.44,2.88-.2,5.62-1.36,7.77-3.29,1.36-1.35,2.45-2.96,3.19-4.73-4.34,1.65-8.85,2.82-13.45,3.49"/><path class="cls-3" d="M49.49,78.16c2.53-6.35,7.74-8.58,14.28-8.41,3.69,.15,7.35,.69,10.93,1.61,4.55,1.13,9.25,2.33,13.78,3.45,2.3,.57,4.43,1.06,6.74,1.62l1.42,.37h0c-.3-.05-.63,0-.93-.05l-1.43-.11c-1.86-.21-3.73-.28-5.6-.22-2.35,.14-4.67,.51-7,.75-2.06,.22-4.12,.48-6.16,.83-5.33,.7-10.62,1.74-15.82,3.11,4.4-.77,8.77-1.57,13.19-2.08,.46-.06,.92-.06,1.38,0-4.94,1.55-9.74,3.49-14.38,5.79-4.72,2.18-9.09,5-13.74,7.28-1.12,.54-2.3,.97-3.51,1.27,1.36-1.23,2.39-2.77,3-4.49,1.36-3.54,2.31-7.22,3.85-10.7"/><path class="cls-5" d="M120.82,53.38c1.8-1.36,2.53-1.58,3.81-2.6,1.22-.92,2.37-1.92,3.45-3,2.87-2.69,4.93-6.08,7.52-9-.47,1.06-.86,2.16-1.17,3.28-.56,2.1-1.14,4-1.72,6-.48,1.65-.9,3.34-1.4,5-1.24,4.21-2.72,8.34-4.42,12.38,.06-3.05-1.08-6-3.18-8.22-.87-1.02-1.8-1.99-2.77-2.91-.2-.17-.36-.38-.48-.62,.1-.11,.21-.21,.33-.31"/><path class="cls-3" d="M131.3,53.03c.5-1.64,.92-3.33,1.4-5,.3-1,.59-2,.89-3-.59,1.52-1.17,3-1.82,4.52-.49,1.26-1.33,2.35-2.41,3.16-.87,.56-1.98,.58-2.88,.06,.21,.58,.32,1.19,.33,1.81,0,.62-.19,1.23-.57,1.73-.32,.41-.79,.68-1.3,.75-.47,0-.93-.17-1.28-.48l-.27-.21c-.37-.3-.73-.62-1.1-.92-.2-.17-.42-.33-.64-.47,.72,.72,1.42,1.45,2.07,2.23,2.1,2.22,3.24,5.18,3.18,8.23,1.69-4.06,3.15-8.2,4.38-12.42"/><path class="cls-8" d="M135.6,38.82c-2.59,2.94-4.65,6.33-7.52,9-.81,.83-1.69,1.61-2.61,2.32,.35,.15,.68,.33,1,.53,.87,.77,2.2,.68,2.96-.19,.08-.1,.16-.2,.23-.31,2.17-2.72,3.86-5.78,5-9.07,.29-.89,.56-1.49,.89-2.3"/><path class="cls-5" d="M64.41,66.21c1.26-1.85,2.94-3.37,4.91-4.43,.99-.52,2.06-.86,3.17-1,2.05-.26,4.09-.63,6.1-1.1-3.37,2.36-7,4.36-10.46,6.56,2.08-1.14,4.17-2.28,6.29-3.34,3.11-1.68,6.42-2.95,9.62-4.45,3.81-1.76,7.92-2.88,11.59-5-3.08,1.91-5.73,4.44-7.77,7.44,.67-.8,1.48-1.47,2.38-2,.98-.6,2-1.13,3.05-1.59,1.77-.8,3.59-1.51,5.39-2.27,1.55-.62,2.95-1.57,4.1-2.79,.28-.32,1.62-1.56,.5-1.72-.21-.01-.42,.02-.62,.09l-2.35,.7c1.4-.59,2.72-1.34,3.94-2.25,1.41-1.02,2.75-2.14,4-3.35l.57-.59c.17-.18,.32-.38,.45-.6-.08,1.36,0,2.72,.26,4.05,.05,.18,.09,.36,.1,.54,.03-.96,.27-1.91,.71-2.77,.18-.31,.72-1.14,1.09-1.06,.18,0,.31,.31,.42,.45l.59,.73c2.2,2.55,4.54,4.97,7,7.27,1.36,1.32,2.57,2.79,4,4.06,1.64,1.46,2.72,3.44,3.06,5.61,.54,4.49-1.9,9.28-5.36,12.06-1.52,1.24-3.35,2.04-5.3,2.3-5,.74-10,0-14.94-.74-3-.45-5.94-1.24-8.89-1.9-4.65-1.16-9.26-2.52-14-3.48-3.33-.89-6.71-1.56-10.12-2.03-1.79-.33-3.61-.51-5.43-.54-.14-.01-.29-.04-.43-.07,.84-1,1.56-1.82,2.42-2.78"/><path class="cls-3" d="M93.59,61.82c.64-3.54,3.68-6.14,7.27-6.25,2-.59,3.9-.19,5.76,1.8-.62-1.17-1.49-2.2-2.55-3-.14-.14,0-.89,0-1.09v-1.22c0-.42-.08-.84-.26-1.23-.03-.06-.08-.1-.14-.13,.44,.36-.59,1.32-.83,1.6-1.15,1.22-2.55,2.17-4.1,2.79-1.8,.75-3.61,1.46-5.39,2.27-1.05,.46-2.07,.99-3.05,1.59-.44,.28-.86,.58-1.27,.9l-.89,1.31c1.12,2.26,3.08,3.3,5.33,3.94,.22,.06,.45,0,.55-.14-.42-.98-.54-2.06-.37-3.11"/><path class="cls-3" d="M64.41,66.21l-1.17,1.32,.33-.22c.39-.26,.77-.54,1.16-.82,.8-.58,1.58-1.2,2.41-1.73,.71-.49,1.63-.52,2.37-.09,.28,.16,.41,.33,.68,.29,2.83-1.72,5.69-3.39,8.4-5.28-2.01,.47-4.05,.84-6.1,1.1-1.11,.14-2.18,.48-3.17,1-1.97,1.06-3.65,2.58-4.91,4.43"/><path class="cls-3" d="M89.26,59.1c1.78-2.23,3.93-4.12,6.37-5.6-3.67,2.08-7.78,3.19-11.59,5-3.2,1.5-6.51,2.77-9.62,4.45-2.12,1.06-4.21,2.2-6.29,3.34l-3.32,1.94,1-.37c4.65-1.74,9.19-3.8,13.75-5.75,3.1-1.35,6.35-2.36,9.67-3"/><path class="cls-3" d="M112.78,49.68c-.47-.79-.83-1.64-1.08-2.53-.15-.59-.33-1.17-.52-1.77-.33,.28-.61,.62-.81,1-.44,.86-.68,1.81-.71,2.77-.01-.18-.04-.36-.1-.54h0c0,.6,.09,1.19,.25,1.76,.14,.53,.35,1.04,.61,1.52,.14,.25,.29,.49,.46,.72,.08,.11,.17,.21,.26,.31-.26-.59-.46-1.2-.59-1.83-.03-.2-.03-.4,0-.6,.02-.27,.23-.48,.5-.48,.25,0,.5,.03,.74,.09,.49,.13,.95,.35,1.36,.65l.44,.31-.09-.15c-.24-.4-.47-.79-.7-1.19"/><path class="cls-3" d="M108.01,64.53c-.03,.22-.07,.44-.13,.66,.56-1.5,.54-3.15-.05-4.63v1c.26,.98,.32,2,.18,3"/><path class="cls-3" d="M100.89,77.06c2.57,.38,5.16,.77,7.76,.94,1.55-.08,3.08-.34,4.56-.79-1.31,0-2.63,0-3.94-.09-4.15-.4-8.26-1.12-12.29-2.17-6.16-1.4-12.29-3.34-18.49-4.63-2.01-.43-4.04-.74-6.08-.91-1.03-.08-2.06-.12-3.09-.11-.83,0-1.64,.08-2.47,.16l1,.14c3.43,.48,6.83,1.17,10.17,2.07,4.7,1,9.31,2.33,14,3.48,3,.66,5.9,1.45,8.89,1.9"/><path class="cls-3" d="M105.01,70.76c.69-.17,1.39-.27,2.1-.29h.4c.15,.02,.3,.02,.45,0-.49,.39-1.09,.61-1.72,.65,.9,.42,1.92,.53,2.89,.31,3.05-.47,6.04-1.27,8.91-2.38,.52-.2,1.07-.36,1.59-.57,.3-.12,.6-.26,.89-.4-.96,.37-1.93,.72-2.91,1.05-1,.37-2.03,.67-3.07,.91-2.38,.56-4.81,.86-7.26,.89,.65-.47,1.32-.41,1.72-1-1.04,.04-2.08-.08-3.08-.37-.21-.04-.43-.06-.64-.07-1.65,0-2.65,1.31-3.56,2.49l-.34,.45-.16,.21c-.07,.09-.24,.47-.33,.51,.65-.26,1.29-.56,1.92-.87l.39-.21c.45-.63,1.1-1.08,1.84-1.28"/><path class="cls-3" d="M70.78,68.63c1.18-.08,2.34-.19,3.53-.23,3.15-.17,6.3,.14,9.35,.94,1.37,.38,2.71,.83,4,1.33,.66,.25,1.32,.51,2,.77,.59,.28,1.2,.52,1.82,.7-.76-.17-1.55-.22-2.33-.35s-1.6-.29-2.4-.45c-1.59-.34-3.17-.74-4.75-1.12s-3.21-.71-4.84-1-3.24-.33-4.88-.44l-2-.16h.49"/><path class="cls-8" d="M78.34,66.47c3.24-.55,6.56-.51,9.79,.13-.66-.51-1.4-.92-2.19-1.21-3.17-1.42-6.62-2.19-10-1.2-1.18,.43-2.35,.91-3.48,1.46-3.06,1.24-6.33,2-9.31,3.41,1.15,.05,2.3,.17,3.43,.36l.35-.07,2.41-.5c3.06-.63,6-1.7,9.06-2.38"/><path class="cls-2" d="M119.45,68.99c-.8,.74-1.65,1.43-2.47,2.16-.24,.16-.44,.37-.6,.61-.14,.27-.1,.58-.21,.86-.13,.28-.3,.53-.52,.75-.32,.37-.79,.59-1.28,.6-1.82,.29-3.68,.1-5.4-.55-.39-.13-.76-.33-1.08-.6-.04-.06-.03-.14,.02-.18,.02-.02,.05-.03,.08-.03,.42,.02,.83-.01,1.24-.1-.44-.04-.88-.16-1.28-.35,3.83-.45,7.57-1.52,11.05-3.18,.25-.12,.51-.22,.76-.34-.11,.1-.21,.2-.31,.31"/><path class="cls-3" d="M107.94,72.19c.4,.19,.84,.31,1.28,.35-.41,.09-.83,.12-1.25,.1-.07-.01-.13,.03-.14,.09,0,.04,0,.09,.04,.12,.25,.21,.54,.37,.85,.47l.27-.11,4.9-1.91c1.28-.51,2.56-1,3.87-1.47,.43-.13,.85-.29,1.26-.47l.41-.37c.1-.11,.2-.21,.31-.31-.25,.12-.51,.21-.76,.34-3.48,1.66-7.22,2.73-11.05,3.18"/><path class="cls-2" d="M101.19,67.75h-3.43c-.53-.06-1.01-.33-1.35-.73-2.44-2-2.23-5.68-.13-7.83,1.01-1.1,2.31-1.9,3.75-2.3,3.05-.92,6.28,.79,7.23,3.83-.81-1.36-2.56-1.8-3.92-1-.2,.12-.38,.26-.55,.43-1.76,1.49-2.32,3.97-1.36,6.07,.46,.78,1.11,1.42,1.89,1.87h0c-.7-.2-1.42-.32-2.15-.35"/><path class="cls-3" d="M101.19,67.75c.73,.03,1.45,.15,2.15,.35-.39-.25-.76-.54-1.1-.85-.27-.02-.55,0-.82,.05-.38,.02-.77,.02-1.15,0-.71,0-1.41-.12-2.08-.35-2.02-.72-3.4-2.61-3.45-4.76-.37,1.78,.28,3.63,1.68,4.79,.34,.4,.82,.67,1.35,.73h3.43"/><g class="cls-7"><rect class="cls-11" x="99.68" y="60.29" width="9.5" height="7.62" transform="translate(31.65 162.67) rotate(-85.1)"/></g><path class="cls-2" d="M114.28,55.98c-.36,.37-.44,.94-.19,1.4-.58-1-3.92-5.5-1.86-5.75,.25-.02,.5,0,.74,.08,.48,.16,.94,.36,1.38,.61,2.35,1.47,4.27,3.54,5.55,6h0c-.06-.09-.13-.17-.2-.25-.22-.26-.45-.51-.7-.75-.31-.31-.64-.58-1-.83-.24-.16-.48-.3-.74-.42-.77-.41-2.29-.75-3-.06"/><path class="cls-3" d="M112.72,55.21c.56,.94,1.16,1.8,1.37,2.17-.16-.34-.16-.73,0-1.07-.39-.43-.84-.8-1.33-1.1"/><g class="cls-6"><rect class="cls-1" x="113.3" y="54.5" width="8.65" height="8.75" transform="translate(-4.13 108.66) rotate(-48.83)"/></g><path class="cls-13" d="M88.68,53.66c.18,.48,.65,1.67,.74,1.8,.35-.14,.72-.26,1-.41,.36-.11,.7-.28,1-.51l-.68-1.75c-.74,.18-1.46,.47-2.12,.86"/><path class="cls-13" d="M86.6,54.35c.15,.64,.41,1.26,.75,1.82,.56-.14,1.11-.33,1.63-.58-.18-.65-.44-1.28-.77-1.87-.55,.15-1.09,.36-1.6,.62"/><path class="cls-13" d="M82.65,55.68c.08,.66,.3,1.3,.64,1.88,.53-.13,1.05-.32,1.55-.55-.02-.08-.05-.15-.09-.22l-.63-1.64c-.52,.08-1.02,.26-1.47,.53"/><path class="cls-13" d="M84.54,55.03c.14,.51,.32,1.02,.55,1.5,.06,.13,.13,.25,.21,.37l1.55-.55c-.18-.65-.42-1.27-.72-1.87-.55,.12-1.08,.3-1.59,.54"/><path class="cls-13" d="M91.16,52.59c.19,.62,.43,1.22,.74,1.79,.59-.1,1.13-.37,1.58-.76-.14-.62-.39-1.21-.73-1.75-.54,.21-1.07,.45-1.59,.72"/><path class="cls-13" d="M95.15,50.88c.22,.59,.48,1.16,.77,1.71,.55-.12,1.06-.39,1.48-.76-.15-.6-.42-1.17-.79-1.67-.52,.16-1.01,.4-1.45,.71"/><path class="cls-13" d="M93.21,51.68c.21,.56,.64,1.8,.72,1.9l1.27-.6c.12-.05,.24-.12,.34-.2-.18-.63-.45-1.24-.8-1.79-.52,.19-1.03,.42-1.52,.69"/><path class="cls-13" d="M97.26,49.77c-.1,.06-.19,.13-.28,.21,.16,.31,.31,.57,.44,.84s.26,.59,.4,.9c.46-.16,.89-.39,1.28-.69-.17-.64-.49-1.24-.92-1.74l-.91,.47"/><path class="cls-13" d="M82.19,55.71c-.08,.02-.17,.05-.24,.09l-.33,.09-.73,.21c.04,.71,.26,1.4,.63,2,.46-.06,.91-.2,1.32-.41l-.36-1.09c0-.06-.28-.87-.29-.87"/><path class="cls-13" d="M106.58,44.1c-.26-.14-.57-.08-.76,.14-.14,.14-.47,.45-.52,.5,.28,.19,.54,.42,.77,.66,.21,.28,.39,.57,.55,.88,.36-.24,.67-.54,.92-.9-.05-.59-.44-1.09-1-1.28"/><path class="cls-13" d="M79.21,56.63c-.09,.69,.04,1.39,.38,2,.51-.02,1-.18,1.43-.45l-.53-1.88c-.45,0-.9,.13-1.28,.37"/><path class="cls-13" d="M69.38,57.34l-.72-.28c-.13,.14-.24,.3-.33,.47-.18,.46-.12,.97,.15,1.38,.27,.38,.61,.7,1,.94-.15-.4-.25-.81-.31-1.23,.02-.43,.09-.86,.22-1.27"/><path class="cls-13" d="M99.72,48.44l-1.16,.63,.94,1.77c.18-.08,.36-.15,.53-.24,.28-.12,.55-.29,.78-.49-.18-.66-.56-1.25-1.09-1.68"/><path class="cls-13" d="M67.51,58.53c.12,.27,.31,.5,.55,.67-.14-.43-.19-.88-.16-1.33,.05-.34,.14-.68,.28-1,0,0-.07-.09-.11-.09s-.17,0-.19,.07c-.19,.31-.34,.65-.44,1-.05,.23-.03,.47,.07,.69"/><path class="cls-13" d="M74.75,57.39c-.07,.02-.14,.05-.2,.09-.09,.08-.16,.2-.18,.32-.02,.18-.02,.35,0,.53,.03,.36,.15,.7,.35,1,.07,.1,.18,.17,.3,.2,.26,.06,.54,0,.76-.16-.09-.27-.17-.48-.22-.69-.14-.44-.14-.91,0-1.35-.25-.04-.51,0-.75,.09"/><path class="cls-13" d="M101.6,47.4c.45,.5,.82,1.06,1.1,1.67l1-.64c0-.43-.16-.84-.44-1.17-.17-.26-.43-.45-.74-.51-.33,.16-.64,.38-.9,.65"/><path class="cls-13" d="M76.23,57.12c-.16,.01-.29,.13-.32,.29-.2,.68-.02,1.41,.46,1.92,.43-.04,.85-.14,1.25-.3-.17-.32-.31-.65-.41-1-.09-.32-.12-.66-.09-1-.3,0-.61,.04-.9,.12"/><path class="cls-13" d="M105.26,47.11l.08,.17,.85-.64c-.05-.74-.5-1.39-1.18-1.69l-.9,.66c.55,.35,.95,.88,1.15,1.5"/><path class="cls-13" d="M101.19,47.61c-.39,.19-.77,.4-1.13,.64,.47,.5,.87,1.05,1.2,1.65,.36-.15,.7-.36,1-.62-.14-.66-.49-1.25-1-1.68"/><path class="cls-13" d="M79.12,58.64l-.41-2-1.1,.24c-.19,.71,0,1.47,.52,2,.64,0,.65,0,1-.28"/><path class="cls-13" d="M102.89,46.51c.53,.36,.95,.87,1.2,1.46,.02,.04,.05,.07,.09,.1l.67-.5c.04-.4-.08-.79-.35-1.09-.18-.31-.5-.51-.85-.55-.3,.14-.56,.33-.77,.58"/><path class="cls-13" d="M69.63,57.99c-.07,.3-.07,.6,0,.9,.17,.83,.55,1.11,1.44,1-.39-.7-.43-1.54-.1-2.27l-1-.16c-.18,.12-.3,.31-.33,.52"/><path class="cls-13" d="M107.89,41.62c-.09,.17-.26,.43-.41,.71,.65,.27,1.17,.79,1.45,1.43,.1-.13,.18-.27,.24-.42,.08-.29,.04-.61-.09-.88-.13-.3-.36-.55-.65-.71-.15-.12-.35-.16-.54-.13"/><path class="cls-13" d="M109.51,42.43c0-1.09-.32-1.4-1.37-1.71l-.12,.42c.62,.26,1.14,.71,1.49,1.29"/><path class="cls-13" d="M107.2,42.73l-.48,.61c-.07,.1-.24,.21-.17,.36,.61,.27,1.11,.74,1.43,1.33l.33-.39c.07-.07,.13-.16,.16-.25,.04-.14,.04-.29,0-.43-.19-.61-.68-1.07-1.3-1.22"/><path class="cls-13" d="M71.31,57.82c-.17,.34-.23,.72-.19,1.1,.02,.31,.15,.6,.36,.83,.11,.11,.24,.18,.39,.21,.34,.07,.7,.01,1-.16-.36-.65-.47-1.41-.31-2.13-.36-.03-.72-.03-1.08,0-.06,.03-.11,.07-.15,.13"/><path class="cls-13" d="M72.89,58.63c.02,.3,.11,.6,.28,.85,.14,.25,.44,.37,.71,.28l.51-.14c-.12-.33-.22-.66-.3-1-.03-.38-.03-.75,0-1.13l-1,.12c-.22,.31-.29,.69-.21,1.06"/><path class="cls-13" d="M101.06,44.68c.52,.5,.9,1.13,1.09,1.83,.29-.2,.49-.34,.69-.5,.12-.09,.19-.25,.16-.4-.06-.66-.43-1.25-1-1.59-.35,.16-.66,.38-.92,.66"/><path class="cls-13" d="M102.95,43.3l-.62,.46c.58,.44,.98,1.08,1.12,1.8,.32-.12,.59-.33,.8-.6-.02-.49-.21-.95-.55-1.3-.18-.23-.46-.37-.75-.36"/><path class="cls-13" d="M100.72,44.9c-.32,.09-.63,.24-.9,.44v.16c.39,.4,.69,.87,.87,1.4,.05,.13,0,.31,.24,.37,.31-.12,.58-.31,.81-.55-.04-.73-.41-1.4-1-1.82"/><path class="cls-13" d="M72.2,55.07c-.5,.61-.5,1.49,0,2.1,.25,.1,.52,.1,.77,0-.31-.69-.37-1.47-.17-2.2-.2-.12-.47-.06-.59,.14"/><path class="cls-13" d="M74.64,54.7c-.2,.4-.23,.86-.07,1.28,.06,.38,.29,.72,.63,.91l.92-.15c-.32-.68-.46-1.43-.43-2.18l-1,.14"/><path class="cls-13" d="M69.41,54.52c-.68,.09-1.22,.62-1.32,1.3,0,.38,.07,.5,.52,.66,.06-.36,.16-.72,.29-1.06,.19-.31,.42-.6,.67-.87-.08,0-.13-.07-.17-.06"/><path class="cls-13" d="M99.25,45.68l-.64,.35c-.09,.06-.17,.13-.25,.2,.52,.55,.84,1.25,.93,2,.4-.14,.77-.36,1.09-.63,0-.5-.16-.99-.46-1.4-.13-.26-.37-.45-.66-.5"/><path class="cls-13" d="M104,43.43c.16,.17,.27,.37,.41,.56,.12,.21,.23,.42,.31,.65h0c.12-.07,.23-.14,.33-.23,.09-.08,.18-.17,.26-.27-.06-.54-.37-1.03-.83-1.32-.13-.08-.27-.14-.42-.17-.26-.07-.53,.07-.62,.32,.19,.14,.36,.29,.53,.45"/><path class="cls-13" d="M67.7,54.71c-.12,.34-.14,.71-.06,1.06,0-.11,.14-.36,.19-.44,.08-.14,.16-.27,.26-.39,.18-.22,.4-.41,.64-.55,.27-.17,.51-.4,.78-.58-.12,0-.23,0-.35,0h-.34c-.52,.05-.96,.41-1.13,.9"/><path class="cls-13" d="M70.54,56.93c.05,.14,.18,.25,.33,.28,.26,.08,.53,.08,.79,0-.3-.73-.3-1.54,0-2.27-.16,0-.32-.05-.43,0-.69,.41-.98,1.25-.7,2"/><path class="cls-13" d="M104.48,38.96c-.11,.13-.18,.29-.18,.46h0l.32,.07c.21-.31,.5-.56,.83-.73-.36-.1-.74-.18-1,.14"/><path class="cls-13" d="M106.96,41.36c-.28-.3-.66-.49-1.07-.54-.18-.02-.37,0-.53,.09-.13,.1-.23,.24-.29,.4v.09c.18,.02,.36,.07,.53,.14,.14,.07,.28,.15,.41,.24,.26,.19,.49,.43,.66,.7,0,.05,.12,.07,.19,.11,.1-.14,.19-.26,.26-.39,.21-.28,.16-.67-.11-.89"/><path class="cls-13" d="M104.65,41.82c-.17,.04-.3,.18-.32,.36,.63,.38,1.12,.96,1.39,1.65,.18-.16,.32-.27,.43-.4,.24-.21,.27-.58,.07-.83-.25-.42-.66-.72-1.14-.82-.14-.04-.3-.04-.44,0"/><path class="cls-13" d="M69.89,52.05c-.17,.03-.32,.13-.41,.27,0,0-.24,.26-.2,.29,.15,.11,.32,.19,.5,.24l.33-.69c-.09-.05-.16-.12-.22-.11"/><path class="cls-13" d="M68.49,53.42h1.12c0-.36-.13-.48-.38-.52s-.57,.19-.74,.52"/><path class="cls-13" d="M69.06,56.41c-.02,.24,.14,.45,.37,.51,.19,.06,.39,.09,.65,.15-.02-.28-.02-.57,0-.85,.04-.25,.1-.49,.18-.73,.07-.23,.3-.38,.35-.64-.08-.02-.17-.04-.25-.05-.07-.01-.15-.01-.22,0-.66,.24-1.1,.87-1.09,1.58"/><path class="cls-13" d="M103.75,38.7h-.34c-.06,.08-.09,.17-.11,.26,0,.06,0,.13,0,.19,.22,.01,.45,.05,.66,.12,.05-.17,.1-.33,.17-.49-.1-.08-.22-.13-.35-.13"/><path class="cls-13" d="M106.31,39.05c-.24-.04-.49,0-.71,.11-.22,.14-.42,.31-.59,.5,.11,.05,.2,.14,.25,.25,.37-.24,.82-.33,1.26-.24,.32,.05,.63,.16,.91,.31,.06,0,.16,.1,.18,.17-.17-.59-.69-1.02-1.3-1.09"/><path class="cls-13" d="M106.72,40.01c-.35-.08-.72-.05-1.06,.09-.03,0-.06,0-.09,0,0,.02,0,.04,0,.06-.05,.11-.09,.22-.11,.34,.39-.11,.81-.06,1.16,.13,.13,.06,.25,.13,.37,.21,.17,.13,.34,.24,.52,.35,0,0,.09,0,.11-.09,.1-.21,.07-.46-.09-.63-.19-.25-.47-.43-.78-.5"/><path class="cls-13" d="M78.8,54.54c0-.13,0-.47-.1-.57s-.89,.15-1.09,.2c-.06,.25-.08,.51-.06,.77,.05,.26,.12,.51,.21,.76,.06,.29,.26,.53,.54,.64l1.06-.25c-.16-.33-.31-.66-.44-1-.05-.17-.09-.34-.12-.51"/><path class="cls-13" d="M89.08,50.59c.15,.71,.43,1.39,.83,2,.59-.2,1.16-.45,1.71-.73-.17-.73-.47-1.43-.9-2.05-.57,.2-1.12,.45-1.64,.74"/><path class="cls-13" d="M87.1,51.31c-.11,.05-.21,.12-.31,.2,.12,.7,.37,1.38,.73,2,.61-.15,1.2-.37,1.75-.67-.18-.69-.42-1.36-.72-2-.5,.09-.99,.25-1.45,.47"/><path class="cls-13" d="M83.37,52.66c-.28,.05-.54,.17-.76,.34,.02,.72,.26,1.42,.7,2,.5-.11,.97-.29,1.41-.54l-.58-2-.78,.26"/><path class="cls-13" d="M96.32,47.28c-.19,.09-.37,.16-.55,.25s-.4,.12-.48,.39c.4,.58,.69,1.22,.87,1.9,.39-.11,.77-.28,1.1-.52,.07-.46-.03-.93-.28-1.32-.15-.28-.31-.59-.67-.69"/><path class="cls-13" d="M91.25,49.68l.84,2c.58-.17,1.14-.41,1.66-.73-.11-.74-.43-1.43-.91-2-.55,.2-1.08,.45-1.59,.73"/><path class="cls-13" d="M94.77,48.09c-.48,.15-.94,.36-1.38,.61-.01,.07-.01,.15,0,.22,.24,.52,.48,1.05,.74,1.57,.05,.08,.12,.16,.19,.22l.64-.29c.22-.11,.48-.16,.63-.39,.01-.43-.09-.85-.3-1.23-.11-.29-.3-.54-.56-.71"/><path class="cls-13" d="M84.67,52.27c.01,.59,.15,1.16,.41,1.69,.07,.12,.15,.24,.24,.35,.58-.16,1.13-.37,1.67-.64-.23-.68-.45-1.34-.68-2-.56,.16-1.11,.37-1.64,.63"/><path class="cls-13" d="M82.12,53.11c-.44,.01-.86,.14-1.23,.37-.07,.7,.15,1.41,.62,1.94,.44,.03,.88-.11,1.22-.39-.12-.29-.25-.59-.34-.9s-.18-.66-.27-1"/><path class="cls-13" d="M77.15,54.27c-.26,0-.51,.08-.75,.13-.21,.03-.37,.22-.35,.43-.04,.63,.14,1.25,.52,1.76,.36,.05,.74,0,1.07-.16-.12-.36-.26-.68-.34-1s-.1-.74-.16-1.15"/><path class="cls-13" d="M74.08,54.82c-.12,0-.24,0-.36,0-.11,.02-.22,.04-.33,.07-.5,.67-.43,1.61,.17,2.2,.31,.05,.63,0,.92-.12-.13-.35-.24-.7-.33-1.06-.04-.36-.06-.71-.06-1.07"/><path class="cls-13" d="M97.97,46.44c-.41,.15-.79,.36-1.15,.61,.21,.3,.4,.6,.57,.92,.15,.36,.28,.72,.39,1.09l.91-.48c.14-.08,.22-.22,.2-.38-.02-.69-.36-1.34-.92-1.75"/><path class="cls-13" d="M80.45,53.59c-.41,.02-.81,.1-1.19,.24-.14,.34-.14,.72,0,1.06,.07,.4,.3,.76,.62,1,.3,0,.6-.06,.89-.16,.13,0,.25-.06,.28-.21s-.26-.6-.35-.91-.15-.67-.22-1"/><path class="cls-10" d="M103.67,45.93c-.29,.14-.56,.33-.77,.58,.32,.17,.59,.43,.78,.74l.93-.63-.1-.14c-.18-.31-.5-.51-.85-.55"/><path class="cls-10" d="M86.13,54.49c-.55,.11-1.08,.3-1.59,.54,.09,.34,.2,.68,.34,1l1.69-.56c-.12-.34-.27-.67-.43-1"/><path class="cls-10" d="M80.49,56.25c-.45,0-.9,.13-1.28,.37-.04,.36-.02,.73,.06,1.08l1.52-.42-.29-1"/><path class="cls-10" d="M84.13,55.16c-.52,.08-1.02,.26-1.47,.53,.06,.34,.13,.67,.23,1l1.63-.51-.39-1"/><path class="cls-10" d="M105.01,44.95l-.9,.66c.32,.2,.59,.47,.8,.79,.32-.22,.64-.46,1-.71-.23-.31-.52-.56-.86-.75"/><path class="cls-10" d="M82.54,56.77l-.06-.18c0-.06-.28-.87-.29-.87-.08,.02-.16,.05-.24,.09l-.33,.09-.73,.21c.04,.37,.11,.73,.21,1.09l.94-.28,.5-.15"/><path class="cls-10" d="M78.71,56.64l-1.1,.24c-.11,.4-.11,.83,0,1.23l1.31-.33-.24-1.15"/><path class="cls-10" d="M70.65,59.16h.13c-.09-.52-.03-1.05,.17-1.53l-1-.16c-.18,.12-.3,.31-.33,.52-.07,.3-.07,.6,0,.9,0,.1,0,.2,.07,.28h1"/><path class="cls-10" d="M69.16,58.61c.02-.43,.09-.86,.22-1.27l-.72-.28c-.13,.14-.24,.3-.33,.47-.18,.46-.12,.97,.15,1.38l.12,.15c.22,0,.44,.07,.66,.09-.05-.17-.08-.35-.09-.53"/><path class="cls-10" d="M72.53,57.63c-.36-.03-.72-.03-1.08,0-.06,.03-.11,.07-.15,.13-.17,.34-.23,.72-.19,1.1,0,.08,0,.17,0,.25,.46,0,.92-.06,1.38-.11-.1-.46-.1-.93,0-1.39"/><path class="cls-10" d="M77.22,58.01c-.09-.33-.12-.66-.09-1-.3,0-.61,.04-.9,.12-.16,.01-.29,.13-.32,.29-.09,.36-.09,.73,0,1.09l1.37-.29-.06-.2"/><path class="cls-10" d="M75.5,57.3c-.25-.04-.51,0-.75,.09-.07,.02-.14,.05-.2,.09-.09,.08-.16,.2-.18,.32-.02,.18-.02,.35,0,.53,.01,.15,.04,.3,.09,.44l1.07-.19c-.13-.42-.13-.86,0-1.28"/><path class="cls-10" d="M74.05,58.58c-.02-.38-.02-.75,0-1.13l-1,.12c-.22,.31-.29,.69-.21,1.06,0,.12,.03,.24,.06,.35l1.19-.16v-.24"/><path class="cls-10" d="M102.5,46.75c-.33,.17-.64,.38-.9,.65,.22,.26,.43,.53,.62,.81l.42-.27,.73-.48-.13-.2c-.17-.26-.44-.44-.74-.51"/><path class="cls-10" d="M88.2,53.74c-.55,.15-1.09,.36-1.6,.62,.1,.34,.2,.68,.33,1l1.75-.62c-.12-.35-.28-.69-.48-1"/><path class="cls-10" d="M105.83,44.24c-.14,.14-.47,.45-.52,.5,.28,.2,.53,.42,.77,.66l.07,.09c.37-.29,.74-.6,1.09-.91-.17-.21-.4-.37-.65-.47-.26-.14-.57-.08-.76,.14"/><path class="cls-10" d="M101.19,47.61c-.39,.19-.77,.4-1.13,.64,.26,.26,.5,.54,.7,.85l1.12-.69c-.16-.32-.4-.6-.69-.81"/><path class="cls-10" d="M107.2,42.73l-.48,.61c-.07,.1-.24,.21-.17,.36,.35,.16,.67,.38,.93,.66,.29-.27,.57-.55,.82-.83-.24-.4-.63-.68-1.09-.79"/><path class="cls-10" d="M67.89,57.87c.05-.34,.14-.68,.28-1,0,0-.07-.09-.11-.09s-.17,0-.19,.07c-.19,.31-.34,.65-.44,1-.05,.23-.03,.47,.07,.69,.04,.09,.09,.17,.14,.25l.33,.12c-.07-.33-.1-.66-.08-1"/><path class="cls-10" d="M107.89,41.62c-.09,.17-.26,.43-.41,.71,.44,.18,.83,.48,1.11,.87,.18-.22,.35-.46,.5-.7h0c-.13-.3-.36-.55-.65-.71-.15-.12-.35-.16-.54-.13"/><path class="cls-10" d="M108.14,40.72l-.12,.42c.51,.21,.94,.56,1.26,1,.06-.12,.11-.24,.15-.36-.14-.57-.5-.8-1.29-1"/><path class="cls-10" d="M95.15,50.88c.15,.33,.27,.67,.41,1l1.59-.78c-.15-.33-.33-.65-.55-.94-.52,.16-1.01,.4-1.45,.71"/><path class="cls-10" d="M98.17,49.3l-.91,.47c-.1,.07-.19,.14-.28,.22,.16,.31,.31,.57,.44,.84l.05,.12,1.32-.7c-.17-.34-.37-.65-.62-.94"/><path class="cls-10" d="M99.72,48.44l-1.16,.63,.53,1,1.37-.78c-.2-.33-.45-.62-.74-.86"/><path class="cls-10" d="M91.18,53.82l-.38-1c-.74,.18-1.46,.47-2.12,.86,.09,.22,.23,.59,.37,.94l.74-.28,1.4-.54"/><path class="cls-10" d="M91.16,52.59c.14,.36,.25,.72,.38,1l1.73-.72c-.13-.35-.3-.69-.51-1-.54,.21-1.07,.45-1.59,.72"/><path class="cls-10" d="M93.61,52.77c.55-.24,1.1-.49,1.65-.75-.12-.36-.29-.7-.52-1-.52,.19-1.03,.42-1.52,.69l.39,1.09"/><path class="cls-10" d="M86.3,51.63c-.56,.16-1.11,.37-1.64,.63,0,.34,.05,.68,.16,1l1.8-.67-.32-1"/><path class="cls-10" d="M88.89,51.71c-.11-.29-.24-.58-.36-.87-.5,.09-.99,.25-1.45,.47-.11,.06-.21,.12-.31,.2,.06,.31,.14,.62,.24,.93l1.51-.59,.36-.14"/><path class="cls-10" d="M84.14,52.4l-.78,.26c-.28,.05-.54,.17-.76,.34,.02,.34,.08,.68,.18,1l1.64-.56-.29-1"/><path class="cls-10" d="M90.72,49.82c-.57,.2-1.12,.45-1.64,.74,.07,.32,.17,.63,.28,.94l1.88-.76c-.13-.33-.31-.64-.52-.92"/><path class="cls-10" d="M82.12,53.11c-.44,.01-.86,.14-1.23,.37-.03,.36,0,.72,.12,1.06l1.38-.43c-.1-.32-.17-.65-.26-1"/><path class="cls-10" d="M100.72,44.9c-.32,.09-.63,.24-.9,.44v.16c.23,.21,.42,.46,.56,.74l1-.66c-.16-.27-.38-.5-.64-.68"/><path class="cls-10" d="M102.95,43.3l-.62,.46c.24,.18,.45,.4,.63,.65l.81-.66-.07-.09c-.18-.23-.46-.37-.75-.36"/><path class="cls-10" d="M101.06,44.68c.23,.2,.43,.44,.59,.7,.34-.24,.67-.48,1-.74-.17-.26-.4-.48-.68-.63-.35,.16-.66,.38-.92,.66"/><path class="cls-10" d="M75.69,54.56l-1,.14c-.2,.4-.22,.86-.06,1.28h0l1.22-.2c-.09-.41-.13-.83-.12-1.25"/><path class="cls-10" d="M72.79,54.93c-.2-.12-.47-.06-.59,.14-.29,.33-.42,.77-.36,1.21h.87c-.04-.44,0-.87,.09-1.3"/><path class="cls-10" d="M68.05,54.99v-.06c.18-.22,.4-.41,.64-.55,.27-.17,.51-.4,.78-.58-.12,0-.23,0-.35,0h-.34c-.41,.02-.78,.24-1,.58,0,.06,0,.12,0,.18,.03,.15,.08,.3,.16,.43"/><path class="cls-10" d="M74.18,56.07v-.18c-.04-.36-.06-.71-.06-1.07-.12,0-.24,0-.36,0-.11,.02-.22,.04-.33,.07-.3,.37-.41,.87-.29,1.33h.31l.78-.1"/><path class="cls-10" d="M78.89,55.05c-.05-.17-.09-.33-.12-.51s0-.47-.1-.57-.89,.15-1.08,.2c-.11,.41-.09,.85,.07,1.25l1.26-.31v-.07"/><path class="cls-10" d="M80.68,54.61c-.1-.33-.15-.67-.22-1-.41,.02-.81,.1-1.19,.24-.14,.34-.14,.72,0,1.06v.15l1.4-.39h0"/><path class="cls-10" d="M77.31,55.42c-.08-.36-.1-.74-.16-1.15-.26,0-.51,.08-.75,.13-.21,.03-.36,.22-.35,.43-.01,.31,.02,.61,.1,.91l1.18-.24v-.09"/><path class="cls-10" d="M99.25,45.68l-.64,.35c-.09,.06-.17,.13-.25,.2,.24,.26,.44,.56,.6,.88l1.12-.67c-.05-.09-.11-.17-.17-.25-.13-.26-.37-.45-.66-.5"/><path class="cls-10" d="M68.49,53.42h1.12c0-.36-.13-.48-.38-.52s-.57,.19-.74,.52"/><path class="cls-10" d="M105.06,41.35v.09c.18,.03,.36,.07,.53,.14l.29,.16c.19-.25,.35-.51,.5-.79-.14-.05-.3-.09-.45-.1-.37-.08-.73,.14-.83,.5"/><path class="cls-10" d="M104.48,38.96c-.11,.13-.18,.29-.18,.46h0l.32,.07c.21-.31,.5-.56,.83-.73-.36-.1-.74-.18-1,.14"/><path class="cls-10" d="M95.2,47.4c-1.07,.46-2.16,1-3.26,1.51,1.09-.48,2.19-1,3.26-1.51"/><path class="cls-10" d="M104.65,41.82c-.17,.04-.3,.18-.32,.36,.22,.15,.44,.32,.64,.5h0l.37-.36,.28-.31c-.17-.1-.35-.17-.54-.21-.14-.04-.3-.04-.44,0"/><path class="cls-10" d="M103.75,38.7h-.34c-.06,.08-.09,.17-.11,.26,0,.06,0,.13,0,.19,.22,.01,.45,.05,.66,.12,.05-.17,.1-.33,.17-.49-.1-.08-.22-.13-.35-.13"/><path class="cls-10" d="M105.6,39.16c-.22,.14-.42,.31-.59,.5,.11,.05,.2,.14,.25,.25,.37-.24,.82-.33,1.26-.24l.25,.05c.02-.17,.02-.35,0-.52-.16-.07-.33-.12-.5-.15-.24-.04-.49,0-.71,.11"/><path class="cls-10" d="M69.89,52.05c-.17,.03-.32,.13-.41,.27,0,0-.24,.26-.2,.29,.15,.11,.32,.19,.5,.24l.33-.69c-.09-.05-.16-.12-.22-.11"/><path class="cls-10" d="M69.16,55.82l.14,.05c.27,.1,.54,.17,.82,.23,.04-.22,.1-.44,.17-.65,.06-.23,.3-.38,.34-.64-.08-.02-.17-.04-.25-.05-.07-.01-.15-.01-.22,0-.47,.16-.84,.53-1,1"/><path class="cls-10" d="M69.41,54.52c-.47,.07-.89,.35-1.13,.77,.16,.16,.34,.3,.54,.41,.02-.08,.05-.16,.09-.24,.19-.31,.42-.6,.67-.87-.08,0-.13-.07-.17-.06"/><path class="cls-10" d="M97.06,48.13l-.08-.16c-.15-.28-.31-.59-.67-.69-.19,.09-.37,.16-.55,.25s-.4,.12-.48,.39c.2,.26,.37,.54,.49,.85l1.28-.64"/><path class="cls-10" d="M105.65,40.09s-.06,0-.09,0v.06c-.05,.11-.09,.22-.11,.34,.36-.11,.74-.07,1.08,.09,.09-.2,.16-.41,.22-.63-.35-.08-.72-.05-1.06,.09"/><path class="cls-10" d="M104.08,42.66c-.26-.07-.53,.07-.62,.32,.19,.14,.36,.29,.53,.45l.06,.07,.62-.55-.17-.13c-.13-.08-.27-.14-.42-.17"/><path class="cls-10" d="M94.77,48.09c-.48,.15-.94,.36-1.38,.61-.01,.07-.01,.15,0,.22l.36,.78,1.61-.74-.07-.16c-.11-.29-.3-.54-.56-.71"/><path class="cls-10" d="M91.25,49.68l.4,.94,1.78-.75c-.16-.32-.36-.63-.58-.91-.55,.2-1.08,.45-1.59,.73"/><path class="cls-10" d="M97.97,46.44c-.41,.15-.79,.36-1.15,.61,.21,.3,.4,.6,.57,.92,.43-.23,.85-.46,1.27-.7-.15-.33-.39-.62-.69-.83"/><path class="cls-10" d="M71.46,56.28c-.05-.47,.02-.95,.21-1.38-.16,0-.32-.05-.43,0-.47,.27-.77,.76-.81,1.3,.33,.05,.67,.07,1,.08"/><path class="cls-8" d="M70.39,53.7c2.44-6.87,10.49-10.89,17-13,1.63-.51,3.31-.88,5-1.1,3.31-.61,6.7-.59,10,.05,.84,.11,1.58,.61,2,1.35-.12,.45-.38,.86-.74,1.16-.4,.34-.81,.69-1.23,1-4.15,2.82-8.61,5.14-13.29,6.94-5.09,2.24-10.48,3.71-16,4.34-.71,.1-1.42,.07-2.12-.08-.12-.03-.24-.06-.36-.11-.21-.1-.33-.33-.29-.56"/><path class="cls-5" d="M103.64,42.16c.36-.3,.62-.71,.74-1.16-.42-.74-1.16-1.24-2-1.35-.66-.16-1.33-.28-2-.36,.06,.16,.06,.34,0,.5-.12,.26-.28,.5-.49,.7-.44,.5-.96,.93-1.54,1.26-5.32,3.13-11.16,4.94-17.09,6.42-2.63,.66-5.29,1.67-8.07,.77-.74,.82-1.39,1.73-1.93,2.69l.1,.11c.17,.04,.34,.07,.52,.09,.55,.05,1.13,0,1.66,0,.94,.04,1.89,.01,2.83-.07,7.4-.77,14.32-3.26,21.17-6,.89-.36,1.75-.76,2.63-1.14s1.46-.94,2.17-1.46c.42-.32,.83-.66,1.23-1"/><path class="cls-3" d="M73.16,54.45c5.52-.63,10.91-2.1,16-4.34,3.85-1.51,7.57-3.35,11.12-5.48-.87,.39-1.74,.78-2.63,1.14-6.84,2.76-13.76,5.25-21.17,6-.94,.08-1.89,.11-2.83,.07h-1.66c-.22-.02-.45-.06-.66-.13-.35,.64-.66,1.31-.9,2-.04,.23,.08,.46,.29,.56,.12,.05,.24,.09,.36,.12,.69,.14,1.41,.17,2.11,.07"/><path class="cls-4" d="M71.66,175.9l.28,.07c.26,.06,.54,0,.76-.14,.28-.21,.33-.61,.12-.88-.03-.04-.07-.08-.12-.12-.49-.35-1.14-.42-1.69-.17-.29,.12-.56,.29-.79,.5-.46,.4-.51,1.09-.11,1.55,.05,.05,.1,.1,.16,.15,.39,.35,.87,.59,1.38,.69,.62,.14,1.25,.22,1.88,.24,.79,0,1.59,0,2.38,.15,.82,.05,1.59,.41,2.15,1,.41,.38,.64,.91,.64,1.46-.03,.27-.13,.54-.28,.77-.08,.12-.17,.22-.27,.32-.07,.06-.23,.14-.27,.21,.17-.29,.29-.6,.35-.93,.07-.33,.04-.68-.07-1-.12-.22-.3-.41-.51-.54-.45-.33-.97-.56-1.52-.66-1.15-.15-2.32-.2-3.48-.14h-1.48c-.75,0-1.49-.11-2.21-.31-.57-.19-1.08-.54-1.47-1-.15-.15-.22-.35-.21-.56,.28-.07,.58-.07,.86,0,.11,0,.2,0,.28-.11-.57-.6-.57-1.54,0-2.14,.37,0,.55,.39,.93,.3,.04-.75,.57-1.37,1.3-1.54,.29,.2,.21,.59,.43,.87h.3c.48-.09,.98-.07,1.46,.06,.34,.11,.63,.32,.85,.6,.07,.07,.12,.16,.14,.26,.05,.31,.05,.62,0,.93-.29,.72-1.07,1.12-1.82,.92-.29-.06-.48-.35-.42-.64,.01-.05,.03-.1,.06-.15"/><path class="cls-4" d="M78.17,166.67c-.12-.18-.37-.21-.52-.37-.21-.2-.33-.48-.35-.77,.02-.21,.07-.42,.15-.62,0-.09,.35-.38,.32-.47-.06-.24-.13-.49-.19-.75-.06-.35-.04-.72,.07-1.06,.06-.23,.32-.58,.59-.5s.39,.41,.43,.67c-.14,.45-.28,1-.47,1.5-.13,.41-.18,.84-.13,1.27,0,.26,.1,.35,.43,.54-.12-.61-.04-1.24,.21-1.81,.28-.55,.61-1.07,1-1.55,.1,0,.18,0,.22,.05l.69,.7c.2,.22,.31,.5,.29,.8v.82c.47-.5,.58-1.24,.27-1.85-.34-.54-.37-1.22-.06-1.78,.07-.1,.16-.17,.26-.23,.05-.02,.11-.02,.16,0,.05,0,.1,.03,.14,.06,.12,.09,.21,.23,.22,.38,.04,.39-.01,.79-.16,1.15-.04,.11-.07,.22-.09,.33l.07,.09c.33,.12,.5,.48,.38,.8-.02,.05-.04,.1-.07,.15-.18,.35-.38,.68-.6,1-.06,.1-.14,.2-.2,.29,.06,.16,.1,.33,.14,.5,.06,.48-.12,.97-.49,1.29-.36,.46-.85,.81-1.4,1-.46,.12-.96-.05-1.24-.44-.08-.16-.12-.35-.1-.53,0-.16,.13-.39,.07-.54h0"/><path class="cls-4" d="M88.21,175.82c-.31,.03-.61-.05-.86-.24-.76-.55-1.2-1.44-1.19-2.38,.05-.75,.3-1.47,.73-2.09,.24-.38,.52-.75,.78-1.12,.56-.8,1.12-1.59,1.68-2.39,.28-.41,.45-.89,.49-1.38,.05-.53-.3-.84-.8-.66-.43,.16-.82,.42-1.13,.76-.33,.3-.55,.7-.65,1.13,0,.13,.06,.25,.17,.31,.1,.04,.21,.04,.31,0,.37-.13,.52-.45,.76-.73,0,0,.14,.1,.14,.16,.03,.14,.03,.3,0,.44-.19,.45-.55,.81-1,1-.26,.11-.56,.07-.78-.1-.54-.51,0-1.42,.34-1.87,.31-.42,.68-.78,1.11-1.08,.19-.12,.31-.34,.3-.57,0-.47,.14-.6,.59-.69h.07c.24-.13,.55-.03,.67,.21,.04,.08,.06,.17,.06,.26,.24-.18,.32-.52,.48-.77,.05-.09,.13-.15,.22-.18,.1-.01,.2,.02,.26,.1,.06,.08,.11,.16,.13,.26,.1,.43,.07,.89-.09,1.3,.19-.28,.44-.53,.72-.72,.07,0,.17-.09,.24,0s0,.14,0,.22c-.24,.71-.58,1.38-1,2-.59,.81-1.23,1.57-1.92,2.3-.53,.63-1.07,1.25-1.55,1.91-.54,.7-.81,1.56-.79,2.44-.03,.92,.54,1.75,1.4,2.06,.06,.04,.11,.08,.16,.12"/><path class="cls-4" d="M73.8,168.23c.2,0,.53-.26,.63-.4,.17-.23,.11-.56-.12-.72-.02-.02-.05-.03-.08-.05,.09-.13,.24-.2,.4-.19,.33,0,.6,.24,.63,.57,.11,.68-.29,1.33-.94,1.54-1.08,.35-1.89-.7-1.86-1.69,0-.19,.03-.37,.09-.55-.16,0-.45,0-.48-.21s.1-.24,.2-.32c.31-.23,.62-.44,.94-.65l-.17-.33c-.05-.05-.05-.13,0-.18,.03-.02,.06-.04,.1-.04,.52-.18,1.07-.23,1.61-.16,0-.16,.11-.31,.27-.35,.27-.07,.73,.4,.91,.58,.26,.29,.44,.63,.54,1,.2,.64,.39,1.28,.62,1.91,.15,.39,.42,.71,.78,.92,.46,.19,.97,.26,1.46,.19-.84,.64-2.84,1.16-3.08-.38-.06-.4-.13-.8-.16-1.2-.1-.7-.6-1.29-1.28-1.5-.52-.08-1.05,.11-1.4,.51-.31,.35-.39,.85-.19,1.28,.08,.24,.3,.42,.56,.44"/><path class="cls-4" d="M76,173.69h0c-.06,0-.12-.03-.16-.07-.15-.24-.2-.53-.14-.8,.03-.33,.17-.64,.39-.89,.5-.57,1.18-.94,1.93-1.06,.6-.15,1.2,.22,1.34,.81,.04,.17,.04,.34,0,.51-.04,.53-.04,1.06,0,1.59,0,.37,.04,.73,.1,1.09,.11,.58,.49,1.31,1.16,1.34h.61c-.66,.44-1.46,.58-2.23,.4-.55-.17-.92-.69-.9-1.26,0-.28,.03-.55,.07-.83,0-.35,.09-.7,.12-1.05,0-.14,0-.28-.05-.41-.1-.29-.41-.45-.7-.36-.42,.07-.8,.26-1.1,.56-.09,.1-.17,.21-.25,.31-.04,.07-.11,.11-.18,.14"/><path class="cls-4" d="M88.25,182.74c-.08,.01-.16,.01-.24,0l-1.34-.54c-.07-.03-.13-.07-.19-.12-.3-.24-.58-.48-.4-.95-1.75-1.56-3.24-3.39-4.39-5.43-.32-.16-.63-.34-.92-.55-.42-.41-.67-.97-.7-1.56-.07-.72-.01-1.44,.17-2.14,.01-.05,.03-.1,.06-.14l.08-.06c.06,.04,.11,.08,.16,.13,.36,.45,.75,.89,1.08,1.37,.48,.59,.66,1.37,.5,2.11,0,.11-.06,.22-.08,.33-.04,.16,0,.33,.08,.47,.73,1.3,1.61,2.52,2.62,3.62,.47,.5,.94,1,1.42,1.47,.13,.12,.28,.21,.45,.25,.52,.09,.97,.41,1.24,.86,.18,.27,.32,.56,.41,.87"/><path class="cls-4" d="M82.96,175.14l-.22,.15c.09-.11,.15-.23,.18-.37,.17-.41,.21-.87,.11-1.31-.11-.4-.3-.76-.56-1.08-.32-.39-.6-.81-.9-1.22-.48-.58-.48-1.42,0-2,.51-.71,1.26-1.19,2.11-1.37,.3-.1,.63,.02,.79,.3,.13,.22,.13,.51,0,.73,0,.03-.03,.06-.05,.09-.07,.03-.14,.03-.21,0-.52-.04-1.03,.2-1.33,.63-.34,.48-.55,.87-.09,1.38,.11,.12,.24,.22,.37,.32,.1,.08,.21,.14,.31,.22,.65,.51,.86,1.41,.5,2.16-.2,.54-.55,1.01-1,1.37"/><path class="cls-4" d="M80.67,168.41c.05-.08,.11-.16,.18-.23,.9-.88,1.5-2.03,1.71-3.27,.13-.8,.39-1.57,.79-2.28,.15-.23,.32-.45,.51-.65,.11-.12,.38-.51,.55-.47,.09,.03,.17,.09,.21,.18,.43-.33,.88-.62,1.35-.87,.09,0,.24-.08,.27,0,.02,.04,.02,.08,0,.12-.03,.11-.09,.21-.16,.3,.23-.1,.47-.16,.72-.17,.12,0,.28,0,.26,.16-.01,.04-.04,.08-.07,.11-.15,.14-.31,.26-.48,.36,.26,.51-.1,1.27-.4,1.69-.34,.5-.83,.89-1.39,1.11-.23,.08-.64,0-.67-.29-.01-.2,.04-.41,.14-.58,.12-.23,.29-.44,.5-.61,.12-.07,.25-.13,.38-.18,0,.09-.09,.14-.15,.19-.08,.05-.15,.13-.2,.22-.05,.09-.05,.2,0,.29,.23,.32,.91-.2,1.06-.4,.11-.15,.19-.32,.21-.51,0-.1,0-.53-.06-.58-.21-.09-.44-.09-.65,0-.49,.18-.92,.49-1.24,.9-.46,.5-.73,1.14-.78,1.81-.01,.31-.04,.63-.09,.94-.08,.53-.31,1.02-.67,1.42-.5,.52-1.08,.96-1.71,1.31h-.11"/><path class="cls-4" d="M91.23,169.39c.25-.06,.51-.04,.75,.06,0,0,.06,0,.07,.06s0,.07-.06,.09c-.55,.36-1.13,.69-1.66,1.09-.82,.62-1.5,1.41-2,2.31-.24,.41-.42,.86-.63,1.29l-.12,.19c-.13-.24-.2-.51-.19-.78,0-.8,.19-1.59,.56-2.29,.61-1.06,1.43-2,2.41-2.74,.02,0,.04,0,.06,0,.05,0,.06,.08,.05,.13-.04,.17-.09,.34-.15,.51,.07-.18,.34-.31,.49-.41l.75-.5c.1-.08,.22-.12,.35-.12,.02,0,.04,0,.06,0v.15l-.73,1h.07"/><path class="cls-4" d="M80.3,159.41c.37,.05,.6-.22,.95-.26l-.06,.2c-.08,.21-.13,.43-.17,.65-.02,.58-.44,1.06-1,1.18-.3,.08-.78,.25-1.07,.06s-.18-.39-.18-.6c.03-.33-.05-.65-.22-.93,.33-.16,.63,0,.9,0,.09-.19,.09-.42,0-.61-.14-.74,.04-1.51,.5-2.11,.03-.03,.06-.05,.1-.07,0,0,.1,0,.12,.07,.27,.37,.39,.83,.33,1.28-.06,.28-.13,.56-.19,.85,0,.09,0,.19-.05,.31"/><path class="cls-4" d="M83.65,180.52l-.18,.11-.63,.35c-.43,.24-.85,.51-1.26,.78s-.89,.62-1.32,.94l-.66,.51c-.14,.15-.3,.27-.48,.36-.16,.06-.39,0-.4-.19s.07-.21,0-.31l-1.5,.49h-.17v-.07c.24-.27,.53-.49,.84-.67,0,0-.11,0-.16-.06s-.12-.07-.09-.12h0c.55-.25,1.06-.57,1.61-.82s1.12-.48,1.7-.69c.97-.35,1.98-.6,3-.75-.13,.01-.25,.06-.36,.13"/><path class="cls-4" d="M79.8,177.64s0-.05,0-.08c.06-.08,.41,0,.49,0h.63c.41,.02,.81,.12,1.19,.28,.3,.16,.57,.38,.78,.64,.26,.29,.49,.61,.73,.92,.03,.05,.06,.11,.07,.17-.43,.14-.87,.22-1.32,.24-.39-.01-.78-.11-1.13-.3-.35-.2-.66-.47-.89-.8-.12-.17-.23-.36-.32-.55-.09-.16-.17-.33-.23-.51"/><path class="cls-4" d="M85.15,178.82c-.26-.2-.5-.44-.72-.69-.22-.28-.39-.6-.5-.94-.2-.73-.08-1.52,.33-2.16,0,0,.25-.4,.29-.39s.16,.27,.2,.36c.25,.47,.57,.88,.8,1.35,.33,.58,.33,1.3,0,1.88-.13,.2-.27,.4-.42,.59"/><path class="cls-4" d="M90.11,177.82h0c.07,.28,.41,.42,.45,.7,0,.02,0,.03,0,.05,0,.05-.1,0-.16,0-.32-.12-.66-.19-1-.2-.37-.05-.73-.05-1.1,0-.83,.17-1.62,.51-2.32,1,0-.11,.05-.22,.12-.3,.43-.63,.98-1.17,1.62-1.6,.6-.43,1.28-.73,2-.88,.08-.04,.18-.04,.26,0,.06,.06,.09,.15,.07,.23-.03,.08-.07,.16-.12,.23,.31-.01,.62,.1,.84,.32,.05,0,.09,.14,0,.18h-.06c-.2,.02-.39,.08-.57,.16"/><path class="cls-4" d="M76.95,164.51c-.5-.14-1.52-.23-1.8-.74-.46-.84,.78-1.28,1.3-.67,.29,.32,.49,.71,.56,1.14,0,.09-.02,.18-.05,.27"/><path class="cls-4" d="M84.17,160.44c.12,.05,.2,.17,.2,.3,0,.38-.61,.81-.86,1-.34,.37-.73,.68-1.16,.94,0-.21,.05-.42,.14-.61,.25-.71,.77-1.3,1.44-1.65,.07-.02,.13-.02,.2,0h0"/><path class="cls-4" d="M87.57,169.1c-.16,.09-.34,.14-.52,.16-.35,.1-.72,.02-1-.21-.16-.25-.23-.55-.18-.84-.26,.32-.42,.7-.48,1.1-.04,.19-.01,.4,.09,.57,.17,.19,.42,.27,.67,.22,.6-.12,1.12-.48,1.44-1-.08,.07-.18,.12-.28,.13"/><path class="cls-4" d="M85.47,181.06c-.37,.17-.73,.37-1.07,.61-.3,.18-.54,.44-.69,.75-.15,.32-.06,.7,.22,.92,.45-.16,.79-.54,.9-1,.4,.07,.81,.09,1.22,.06-.11-.05-.21-.11-.31-.19-.14-.15-.24-.34-.29-.55,0-.08-.08-.59,0-.63"/><path class="cls-4" d="M86.68,180.65c.58,.01,1.14,.24,1.56,.65,.08-.16,.11-.33,.09-.51,.38-.03,.76,.03,1.11,.17,.13,.06,.28,.15,.42,.09-.05-.09-.12-.17-.2-.24-.34-.34-.76-.6-1.22-.75-.36-.07-.72-.03-1.06,.11-.33,.14-.64,.32-.93,.53,.19-.04,.38-.06,.57-.06"/><path class="cls-4" d="M84.89,183.72c.23,.09,.47,.13,.71,.14,.4,.02,.8,0,1.19-.07,.11-.01,.21-.04,.31-.1,.1-.06,.16-.16,.16-.27,0-.43-.53-.71-.86-.87-.02,0-.04,0-.06,0v.07c.05,.33-.3,.62-.55,.77s-.7,.4-.88,.33"/><path class="cls-4" d="M87.42,182.98c.12,.09,.22,.21,.29,.34,.06,.14,.06,.29,0,.43-.09,.17-.24,.3-.42,.37,.38,.07,.78,.07,1.16,0,.08-.01,.15-.04,.22-.09,.07-.05,.1-.13,.08-.21-.03-.06-.07-.12-.13-.15-.44-.32-.9-.6-1.38-.85l.35,.43"/><path class="cls-4" d="M89.67,184.25c.25,.17,.55,.25,.85,.23h.06v-.05c-.07-.1-.17-.19-.29-.24-.49-.28-.96-.58-1.43-.9,.31,.33,.43,.74,.82,1"/><path class="cls-4" d="M88.81,182.65c.28,.46,.72,.78,1.24,.91,.17,.07,.37,.07,.54,0,.05-.03,.09-.08,.1-.14,0-.1-.13-.14-.23-.16-.76-.11-1.46-.46-2-1l.57,.82"/><path class="cls-4" d="M88.54,181.89c.4,.39,.88,.7,1.41,.89,.11,.02,.23,.02,.34,0,.12-.01,.22-.07,.29-.17,.06-.14,.06-.31,0-.45-.03-.09-.06-.19-.1-.28,0,0,0-.09-.09-.09s-.07,0-.1,.06c-.12,.11-.28,.17-.44,.17-.16,0-.32-.02-.48-.06-.31-.07-.62-.16-.92-.26,0,.2,.29,.34,.42,.49"/><path class="cls-4" d="M73.45,176.94c.4-.26,.74-.6,1-1,.15-.2,.24-.43,.28-.68,0-.35-.09-.7-.26-1,.36,.1,.68,.31,.92,.59,.23,.35,.25,.8,.06,1.18-.2,.37-.52,.65-.91,.79-.39,.14-.8,.21-1.21,.19l.45-.33"/><path class="cls-4" d="M74.31,178.82c-.43-.05-.87-.06-1.3-.05-.67,0-1.34,.06-2,.13-.18,0-1,.06-.47,.33,.09,.04,.19,.08,.27,.14,.02,.03,.02,.06,0,.09,0,.13-.4,.13-.51,.14l-.72,.13-1.43,.31s.06,.08,.12,.08h1.08c.1,0,.23,0,.27,.1,.04,.06,.04,.13,0,.19-.05,.05-.11,.09-.18,.11l-.61,.26c-.19,.06-.37,.18-.5,.33h.12c.6-.16,1.2-.33,1.81-.45s1.24-.24,1.87-.33c1.24-.19,2.5-.27,3.75-.24,.37,0,.74,.05,1.1,.07,.15,0,.83,0,.9,.1-.18-.25-.41-.45-.69-.58-.88-.47-1.85-.77-2.85-.87"/><path class="cls-4" d="M14.77,99.4c-.5,.01-.99-.13-1.41-.4-.56-.4-.9-1.04-.92-1.73-.03-.86,.12-1.72,.44-2.52,.65-1.54,1.79-2.82,3.25-3.64,.63-.33,1.31-.58,2-.74,1.51-.44,3.12-.39,4.61,.13,.48,.16,.93,.41,1.33,.72,.89,.7,1.06,1.98,.39,2.89-.51,.7-1.13,1.31-1.84,1.8-.98,.74-2.02,1.39-3.11,1.94-1.15,.65-2.39,1.13-3.68,1.43-.33,.08-.66,.12-1,.12m1.44-4.2s.06,.09,.1,.12c.36,.22,.78,.33,1.2,.3,.11,.02,.23,.02,.34,0,.12-.04,.23-.09,.33-.16,.45-.28,.89-.56,1.35-.81s.37-.29,.29-.68c-.03-.19-.07-.38-.13-.57-.04-.13-.12-.25-.24-.32-.14-.04-.28-.04-.42,0-.45,.07-.91,.16-1.37,.21-.33,.06-.62,.28-.77,.58-.25,.39-.47,.79-.67,1.2,0,.04,0,.07,0,.11,0,.02,0,.05,0,.07m.17,1.7v-.11c-.15-.25-.43-.38-.71-.33-.22,.03-.44,.1-.64,.2-.26,.12-.49,.29-.68,.5-.18,.2,0,.4,.18,.53,.17,.12,.37,.2,.58,.24,.25,.03,.5,.03,.75,0,.25,0,.37,0,.51-.26,.12-.26,.14-.55,.05-.82m2.09,.15c.06,.16,.31,.07,.48,0,.46-.26,.92-.52,1.38-.79s.63-.41,.94-.62c.1-.04,.15-.15,.11-.24v-.03c-.22-.1-.46-.13-.69-.09-.47,.04-.92,.18-1.32,.42-.46,.26-.79,.7-.9,1.22-.01,.06-.01,.11,0,.17m-4.69-1.36h0s.07,.01,.1,0c.37-.19,.71-.44,1-.74,.3-.27,.53-.62,.66-1,.07-.27,0-.69-.29-.78s-.49,.2-.63,.37c-.29,.37-.52,.77-.69,1.21,0,.13-.35,.88-.14,1m6.78-4.58c0-.07-.09-.09-.16-.09-.93-.05-1.87,.06-2.76,.33-.07,.03-.14,.07-.2,.12-.17,.18,.13,.41,.27,.51,.19,.12,.42,.17,.64,.16,.82,0,1.6-.35,2.16-.95,0-.03,0-.05,0-.08m1.66,.79h-.1c-.27,.1-.51,.27-.7,.48-.26,.25-.27,.67-.02,.93,.09,.09,.21,.16,.34,.19,.23,.07,.46,.12,.7,.15,.23,0,.35,0,.42-.28,.12-.42,.04-.86-.22-1.21-.1-.14-.25-.29-.42-.28"/><path class="cls-4" d="M8.39,102.7c-.04,.16-.06,.32-.06,.48,0,.1,.03,.21,.1,.28,.06,.04,.13,.05,.2,.05,.35-.01,.69-.1,1-.25,.08-.03,.15-.07,.21-.13,.05-.07,.08-.15,.09-.23l.44-2.23c.03-.07,.03-.15,0-.22-.03-.05-.08-.08-.13-.09-.11-.03-.24-.03-.35,0-.22,0-.44,.09-.66,.16s-.37,.09-.45,.23c-.05,.15-.09,.32-.1,.48l-.14,.69-.15,.76"/><path class="cls-4" d="M143.56,58.74c.01,1.38-.28,2.74-.84,4-.41,.98-1.1,1.81-2,2.37-.81,.54-1.88,.54-2.69,0-.33-.23-.62-.51-.86-.84-.25-.36-.46-.75-.63-1.16-.3-.69-.5-1.41-.6-2.15-.2-1.04-.21-2.1-.05-3.14,.08-.39,.09-.78,.18-1.16,.18-.85,.52-1.67,1-2.39,.47-.69,1.19-1.17,2-1.34,.69-.15,1.42,0,2,.4,.87,.53,1.55,1.33,1.93,2.28,.28,.68,.46,1.4,.53,2.13,0,.35,.06,.7,.08,1m-4.45-1.08c-.18,.1-.31,.29-.32,.5-.06,.32-.11,.65-.16,1s-.07,.45-.1,.67c-.03,.2,.04,.41,.18,.56,.23,.25,.44,.52,.66,.78,.09,.15,.29,.2,.44,.11,.05-.03,.08-.07,.11-.11,.27-.32,.52-.65,.77-1,.16-.2,.22-.47,.15-.72-.06-.21-.08-.42-.12-.63s-.11-.57-.18-.85c-.04-.24-.25-.4-.49-.38-.32,0-.63,.06-.94,.09m-1.77,4.39c.22,.78,.77,1.42,1.5,1.75,.05-.06,.1-.13,.13-.21,.11-.47,.07-.96-.12-1.41-.1-.39-.44-.66-.84-.68-.31,.04-.57,.24-.69,.52m.07-5.41c-.51,.94-.7,2.02-.54,3.07,.1,.08,.24,.08,.34,0,.19-.13,.34-.3,.44-.51,.28-.53,.35-1.15,.19-1.73-.07-.31-.22-.59-.44-.81m4.55,4.93c-.18-.25-.52-.33-.8-.19-.23,.11-.42,.3-.53,.53-.19,.39-.3,.81-.32,1.24-.04,.18,.03,.36,.18,.46,.75-.43,1.28-1.16,1.47-2m-3.4-6.54c.07,.34,.25,.64,.51,.87,.27,.28,.71,.28,.99,.01h.01c.28-.27,.46-.63,.49-1.01-.6-.46-1.45-.42-2,.1m3.32,1.07c-.11,.12-.19,.17-.22,.25-.29,.67-.29,1.43,0,2.1,.12,.35,.43,.59,.79,.63,.04-.1,.08-.2,.09-.31-.01-.92-.22-1.83-.61-2.67"/><path class="cls-4" d="M140.45,48.3c0,.12-.11,.27-.16,.37s-.16,.31-.26,.46-.28,.44-.43,.65-.36,0-.5-.1c-.08-.05-.16-.11-.23-.18l-.51-.44-.7-.62c-.07-.05-.12-.12-.16-.2-.03-.09-.03-.2,0-.29,0-.11,.1-.21,.15-.32,.07-.16,.15-.32,.24-.47,.09-.16,.2-.31,.31-.45,.07-.13,.23-.19,.36-.12,.02,.01,.05,.03,.07,.05,.34,.21,.65,.45,.93,.73,.27,.24,.53,.49,.77,.75,.04,.04,.07,.09,.09,.14h0"/><path class="cls-4" d="M138.36,72.27c-.09,0-.16-.16-.21-.23-.21-.31-.39-.65-.53-1,0-.11-.09-.22-.13-.33-.04-.08-.06-.17-.06-.26,.02-.08,.07-.16,.12-.23,.15-.23,.31-.45,.48-.66,.17-.21,.34-.43,.52-.63,.06-.07,.12-.13,.19-.18,.06-.05,.11-.06,.18,0,.32,.48,.61,.98,.86,1.5,.1,.14,.1,.33,0,.47-.21,.29-.43,.58-.67,.86s-.24,.28-.37,.4c-.08,.1-.18,.19-.29,.25h-.07"/><path class="cls-4" d="M135.37,77.47c-.06,.14-.11,.28-.15,.42-.12,.42-.16,.86-.1,1.29,.2,.23,.43,.42,.7,.56-.06-.46-.03-.93,.1-1.38,.02-.08,.05-.16,.08-.23,.12-.31,.46-.47,.77-.35,.02,0,.03,.01,.05,.02,.55,.19,.89,.68,1.43,2.94,.21,.07,.43,.12,.65,.16,.3-1,.59-2.07,.84-3.11-.22-.17-.46-.32-.71-.44-.22,.89-.45,1.77-.7,2.65-.08-1.47-.26-2.82-1.44-3.22-.59-.25-1.26,.03-1.51,.61-.01,.03-.02,.06-.03,.09m-1.07,3.71c-.05,.11-.09,.23-.13,.35-.14,.41-.2,.84-.15,1.27,.19,.23,.43,.42,.69,.56-.04-.46,0-.93,.15-1.37,.01-.06,.03-.12,.05-.18,.11-.34,.48-.53,.82-.41,.02,0,.04,.01,.06,.02,.55,.2,.86,.68,1.33,2.91,.22,.07,.44,.12,.66,.16,.33-1,.66-2.05,1-3.09-.22-.17-.45-.32-.7-.44-.25,.88-.53,1.76-.81,2.63,0-1.46-.15-2.8-1.33-3.2-.63-.25-1.35,.06-1.6,.69,0,.02-.02,.04-.02,.07m-8.7,19.66c-.08,.38-.06,.77,.08,1.13l.44,.15c-.1,.16-.2,.33-.3,.51,.29,.14,.53,.23,.73,.31l.33-.56,1.22,.42c.72,.29,1.55-.03,1.89-.73,.81-1.44,1.59-2.91,2.33-4.37h0c.25-.53,0-1.1-.86-1.85l1.52,.52c.15-.29,.29-.6,.43-.89l-3.21-1.1c-.23,.39-.42,.75-.62,1.15v.07c-.5,1.06-.4,2,1,2.45,.21,.08,.42,.13,.64,.15-.56,1.08-1.13,2.15-1.74,3.22-.23,.42-.5,.66-.91,.51l-1.16-.4c.19-.33,.38-.67,.56-1-.21-.17-.43-.31-.67-.43-.21,.4-.44,.78-.65,1.17-.36-.12-.66-.26-1-.41m7.4-15.77c-.04,.08-.07,.16-.1,.25-.47,.93-.09,2.07,.84,2.54,.08,.04,.16,.07,.25,.1,1.16,.36,2.42-.1,3.08-1.13v-.07c.19-1.22-.5-2.41-1.66-2.83-.99-.35-2.08,.16-2.44,1.15m-1.58,4.11l-.05,.12c-.17,.4-.25,.82-.25,1.25,.18,.23,.4,.41,.66,.55,0-.46,.08-.91,.26-1.33v-.07c.12-.39,.54-.61,.93-.49,.03,0,.05,.02,.07,.03,.55,.19,.83,.66,1.15,2.85,.21,.07,.44,.13,.66,.17,.43-1,.85-2,1.24-3-.21-.17-.44-.32-.69-.44-.33,.86-.69,1.72-1,2.58,.09-1.44,.06-2.75-1.12-3.15-.75-.26-1.56,.14-1.82,.88,0,.02-.01,.04-.02,.07m-6.8,15.39c-.41,.89-.27,1.63,1,2.05,1,.33,1.63,.17,1.9-.25l.07-.12c.23-.49,0-1-.81-1.75l1.52,.52c.18-.28,.35-.58,.52-.86l-3.2-1.1c-.27,.37-.51,.71-.74,1.1-.08,.13-.15,.26-.22,.4m6.82-13.07c-.23,.7,.25,1.26,1,1.73l-.32-.11c-.43-.14-.86-.25-1.31-.32l-.4,.86c.43,.11,.78,.21,1.19,.35l2,.7,.42-.9c-1.1-.38-2.19-1.13-1.79-2l.06-.11c-.33-.11-.66-.19-1-.24m3.12-5.66c.07,.25,.18,.48,.32,.7,.25-.08,.49-.2,.7-.35-.07-.25-.18-.48-.32-.7-.25,.08-.49,.2-.7,.35m-2.7,11.14h0c-.12,.23-.49,.22-1.4-.09-.43-.14-.47-.37-.23-.9l.06-.13c.08-.17,.14-.29,.21-.42,.53,.41,1.57,1.08,1.36,1.53m-4.82,8.6h0c-.14,.22-.53,.22-1.43-.09-.37-.13-.43-.31-.26-.68,.05-.11,.11-.22,.18-.32l.25-.39c.5,.39,1.48,1,1.28,1.46m9.76-18.94c-.13,.27-.94,.85-2.33,.37-.57-.12-.93-.69-.81-1.26,.01-.06,.03-.13,.06-.19,.01-.04,.03-.09,.05-.13,.24-.55,.87-.8,1.42-.56h.03c1.43,.5,1.68,1.48,1.58,1.75h0m-12,22.1h-.05c-.67,.54-1.54,.77-2.39,.63-.66-.22-.78-.68-.57-1.13,.04-.08,.08-.15,.13-.22,.43-.6,1.22-.81,1.89-.5,.52,.18,.91,.63,1,1.18m-3.86-.56c-.41,.68-.2,1.55,.48,1.96,.14,.08,.28,.14,.44,.18,1.18,.25,2.4-.04,3.34-.79,1.11-.7,2.22-1.41,3.31-2.13-.53-.28-1.18-.26-1.69,.07l-1.74,1.1c.31-.78-.07-1.66-.85-1.97-.02,0-.05-.02-.07-.03-1.31-.27-2.64,.39-3.22,1.6"/><path class="cls-12" d="M145.81,49.02c-.15-2.73-.5-5.44-.81-8.15-.28-2.5-1-7.69-2.93-9.23-1.12-1-3-.35-3.63,.87-.29,.53-.6,1.05-.9,1.58-.6,1.14-1.27,2.23-2,3.29-1.9,2.56-3.76,5.15-5.8,7.6-.22,.28-.47,.53-.7,.8-2.34,2.75-5.28,4.92-8.59,6.36-.37,.19-.77,.3-1.19,.33-.12-.11-.25-.22-.38-.35-.84-.84-1.66-1.7-2.52-2.53-1.51-1.53-2.93-3.15-4.25-4.85-.29-.33-.46-.74-.49-1.17-.04-.78-.53-1.48-1.25-1.79-.13-.06-.29-.06-.42,0-.06-.19-.13-.38-.22-.56-.11-.17-.25-.31-.41-.43-.33-.29-.75-.46-1.19-.49-.11-.68-.59-1.25-1.24-1.48-.25-.12-.51-.21-.78-.27-1.14-.26-2.31-.34-3.47-.24-1.31,.09-2.63,.11-3.94,.06-5.49-.24-10.96,.76-16,2.94-4.39,1.95-8.84,4.7-11.47,8.66-.22,.34-.49,.64-.8,.9-.77,.62-1.48,1.31-2.11,2.07-.3,.35-.56,.72-.78,1.12-.44,.65-.44,1.5,0,2.15,0,.05,0,.09,0,.14-.11,.34-.35,.61-.67,.77-.55,.31-1.08,.66-1.62,1-.67,.43-1.37,.83-2.08,1.19-.14-.17-.29-.33-.46-.48-.16-.1-.34-.14-.53-.13-.26,.03-.52,.09-.77,.18-.05,0-.17,.09-.22,.06s-.1-.13-.14-.18c-.09-.14-.23-.25-.38-.31-.17-.05-.34-.05-.51,0-.37,.19-.7,.44-1,.73-.12,.01-.24,.01-.36,0-1.03-.26-2.04-.62-3-1.07-5-2.35-8.26-7.22-10.22-12.23-1.78-4.77-1.69-9.9-1.9-14.92-.13-6.19-1.45-12.31-7.57-15.18-2.29-1.08-4.85-1.48-7.36-1.16-.37,.05-.76,.07-1.12,.13-2.2-2.26-5.36-3.32-8.48-2.84-.63,.12-1.28,.26-1.94,.36-.02-.14-.08-.27-.18-.37-.25-.25-.65-.25-.9,0h0c-.07-.04-.16-.07-.24-.08-.16-.05-.34-.03-.49,.06h0c-.08-.09-.19-.16-.31-.19-.13-.04-.28-.04-.41,0-.19-.29-.58-.38-.87-.19-.1,.06-.18,.15-.23,.26h0c.05-.21,.05-.44,0-.65-.13-.45-.4-.86-.76-1.16-.26-.24-.54-.46-.83-.66-1.06-.63-1.82-1.66-2.11-2.86-.09-.67-.02-1.36,.2-2-.26,.25-.43,.58-.5,.93-.15,.56-.2,1.14-.16,1.72-.2-.36-.38-.74-.54-1.12-.79-1.89-1.29-3.9-1.48-5.94-.23,.37-.37,.79-.4,1.23-.02,.43-.02,.87,0,1.3,.01,.89-.05,1.77-.19,2.65-.23-.61-.32-1.27-.26-1.92,0,.12-.16,.3-.21,.41-.06,.15-.11,.3-.15,.45-.1,.33-.18,.66-.25,1-.13,.66-.16,1.33-.07,2,.11,.72,.31,1.41,.62,2.07-.26-.27-.53-.52-.83-.75-.45-.3-.93-.56-1.44-.76,.26,.16,.48,.37,.64,.63,.18,.22,.37,.43,.58,.62,.69,.73,1.39,1.43,2.09,2.14,.83,.88,1.81,1.59,2.9,2.11,.4,.19,.83,.3,1.27,.31,.44-.02,.87-.09,1.3-.2h0c-.04,.13-.04,.27,0,.4,.04,.16,.15,.29,.29,.38,.2,.12,.46,.12,.66,0v.09c.08,.14,.22,.25,.38,.29,.16,.05,.34,.03,.49-.06,.11-.07,.2-.16,.25-.28,.08,.11,.2,.18,.33,.22,.16,.05,.34,.03,.49-.06,.14-.08,.25-.22,.29-.38v-.05h0c.24,.25,.64,.25,.89,0,.12-.12,.19-.29,.19-.46v-.24l1.6-.34c2.83-.58,5.77,.24,7.89,2.2,0,0-.2,.08-.22,.09l-1,.33c-1.73,.57-3.38,1.38-4.9,2.4l-.38,.23v-.07c-.04-.16-.15-.29-.29-.38-.3-.18-.69-.08-.86,.22h0v.06h0c-.3-.17-.69-.07-.86,.23h0c-.15-.12-.36-.16-.55-.11-.14,.04-.26,.13-.34,.25-.28-.21-.67-.15-.88,.13-.07,.09-.11,.2-.12,.31-.25-.19-.42-.49-.72-.6-.55-.2-1.14-.25-1.72-.14-.56,.13-1.13,.22-1.7,.26-.54,.04-1.07,.04-1.61,0-.53-.05-1.02-.28-1.39-.66,.1,.25,.23,.48,.38,.7,.11,.2,.29,.35,.5,.43-.54-.13-1.1-.22-1.66-.25-.56-.03-1.12,.1-1.62,.36,.52-.07,1.04,0,1.53,.18,.55,.14,1.12,.22,1.69,.22-.48,.06-.98,.06-1.46,0l-1-.16c-.86-.1-1.74-.04-2.58,.17-1.1,.28-2.09,.86-2.86,1.69,.11-.12,.58-.13,.73-.15,.85-.1,1.7,.02,2.49,.35,.76,.35,1.58,.57,2.42,.64-.9,.29-1.88,.29-2.78,0,.66,.31,1.38,.46,2.11,.45-.62,.22-1.29,.3-1.95,.24,.22,.06,.44,.15,.64,.26,.23,.08,.46,.14,.7,.19,.49,.1,.98,.15,1.48,.14,.5,0,.99-.07,1.47-.19,.49-.12,.93-.35,1.41-.48-.49,.61-.89,1.28-1.19,2,.11-.32,.64-.61,.87-.82,.32-.3,.68-.54,1.07-.73,.81-.4,1.66-.74,2.53-1,.36-.1,.74-.2,1.09-.32,.35-.12,.68-.27,1-.45,.16-.1,.32-.21,.45-.35v-.06h0c.1,.33,.44,.53,.78,.44,.15-.05,.28-.15,.36-.28,.1,.06,.21,.09,.32,.09,.17,0,.33-.07,.45-.19,.1-.1,.16-.23,.18-.37,.09,.05,.18,.07,.28,.07,.17,0,.33-.06,.45-.18,.06-.06,.11-.13,.14-.21,.08,.04,.18,.06,.27,.06,.35,0,.63-.28,.63-.63h0c0-.2,0-.39-.05-.59,.28-.15,.52-.35,.79-.52,1.77-1.18,3.73-2.06,5.79-2.59,.18-.03,.37-.05,.55-.06,1.56,1.75,2.76,3.79,3.55,6,.17,.47,.34,.95,.5,1.44,.18,.47,.32,.96,.42,1.46-.24-.27-.52-.5-.83-.69-.71-.53-1.5-.94-2.34-1.22-3.71-1.32-7.71,0-10.93,2-.3,.18-.58,.38-.87,.58l-.14-.23c-.09-.14-.22-.24-.38-.29-.16-.04-.34-.02-.49,.06-.14,.08-.25,.22-.29,.38,0,.04,0,.09,0,.13-.33-.08-.67,.11-.76,.44h0c-.16-.05-.34-.02-.49,.06-.14,.08-.24,.21-.29,.37-.1-.05-.2-.08-.31-.08-.17,0-.33,.06-.45,.18-.12,.12-.18,.28-.18,.45v.17c.03,.11,.08,.2,.16,.28h-.09c-.41-.02-.82-.02-1.23,0-.41,.1-.78,.31-1.07,.6-.88,.81-1.66,1.71-2.34,2.69-.34,.51-.76,.95-1.26,1.3-.48,.41-1.07,.66-1.7,.72,.18,.15,.42,.22,.65,.19,.23-.04,.45-.1,.66-.2l.59-.25c-.25,.29-.44,.63-.56,1-.1,.39-.16,.79-.18,1.19-.03,.61-.16,1.2-.38,1.77-.18,.49-.54,.91-1,1.16,.46-.17,.87-.46,1.18-.85,.31-.38,.54-.83,.67-1.3-.15,1.72,.36,3.43,1.43,4.78-.4-1.32-.29-2.75,.31-4,.06,.92,.06,1.84,0,2.76,0,.58,0,1.16-.08,1.73-.01,.56-.17,1.11-.46,1.59,.72-.91,1.26-1.97,1.57-3.09,.41-1.17,.7-2.39,.85-3.62,.03,.76,.22,1.51,.55,2.2-.23-1.01-.18-2.07,.12-3.06,.36-.93,.98-1.74,1.77-2.34,.46-.36,.86-.79,1.19-1.27,.38-.49,.51-1.12,.36-1.72-.03-.12-.05-.25-.06-.37h.16c.17,0,.33-.07,.45-.19,.09-.09,.15-.21,.18-.33,.32-.01,.57-.26,.59-.58,.14,.02,.27-.01,.39-.08,.14-.08,.25-.22,.29-.38,0-.04,0-.08,0-.12,.32,.06,.63-.14,.72-.45,.04-.16,.02-.34-.06-.49l-.2-.33c4.55-3.15,10.42-4.67,14.71-.13,.21,.22,.34,.5,.4,.8,.29,1.23,.6,2.46,.89,3.69,.99,4.27,2.16,8.48,3.49,12.65,.67,2.18,1.49,4.31,2.44,6.38,1.38,3,2.84,6,5.39,8.18,2.68,2.25,5.91,3.77,9.36,4.38,.06,0,0,.15,0,.23,.03,.18,.14,.34,.3,.43,.12,.07,.25,.1,.39,.09,.11,0,.25-.11,.34-.09s.26,.26,.34,.34,.27,.32,.31,.32c-1.02,.11-2.04-.02-3-.38-3.33-1.12-6.33-3.05-8.71-5.63-1.05-1.04-1.96-2.21-2.72-3.48-1.13-1.68-2.25-3.36-3.32-5.08-1.25-2-2.45-4.08-3.68-6.11-1.19-2.03-2.57-3.95-4.12-5.72-1.09-1.27-2.38-2.35-3.81-3.22-2.17-1.34-4.86-1.55-7.21-.55-1.39,.56-2.66,1.37-3.77,2.38-.36,.32-.72,.64-1.07,1l-.32-.21c-.15-.08-.33-.11-.49-.06-.33,.1-.53,.44-.44,.78v.07h0c-.34-.09-.68,.11-.78,.44-.04,.18-.01,.37,.09,.52-.31-.05-.61,.15-.7,.45-.02,.11-.02,.21,0,.32-.33,.1-.53,.45-.43,.78,.06,.21,.22,.37,.43,.43-.1,0-.23,0-.32,.08-.34,.11-.65,.31-.9,.56-.31,.35-.56,.75-.73,1.19-.23,.62-.35,1.27-.36,1.93-.09,1.49-.32,3.1-1.59,4.08,.86-.21,1.58-.77,2-1.55-.02,.15-.02,.3,0,.45v.53c-.03,1.73,.93,3.32,2.47,4.1,.32,.17,.67,.3,1,.47,.59,.33,1.13,.73,1.61,1.21-.1-.26-.25-.49-.43-.7-.36-.49-.61-1.05-.73-1.65,.26,.46,.59,.87,1,1.21,.33,.24,.71,.38,1,.61l-1.11-1.24c.67,.45,1.31,.95,1.91,1.5,.44,.47,.91,.9,1.42,1.29-.08-.21-.11-.3-.14-.39-.42-.9-.95-1.73-1.58-2.49-.5-.65-1-1.3-1.51-1.92-.31-.31-.55-.67-.73-1.07,.07,.19,.38,.41,.53,.54,.34,.28,.71,.52,1.09,.74,.4,.26,.83,.49,1.27,.68-.83-.53-1.52-1.26-2-2.12-.4-.84-.59-1.76-.54-2.69,0-.47,.14-.91,.19-1.37s.08-1,.08-1.55c.04-.71-.22-1.4-.71-1.92-.11-.1-.22-.17-.31-.24h0c.34,.09,.68-.11,.78-.44,.01-.08,.01-.16,0-.24,.13-.08,.22-.21,.26-.35,.02-.1,.02-.21,0-.31,.15-.05,.27-.15,.35-.28,.08-.18,.08-.38,0-.56,.15-.05,.28-.15,.36-.28,.08-.15,.11-.33,.06-.49-.04-.15-.14-.27-.26-.36,1.48-1.67,3.41-2.87,5.56-3.46,5.38-1.4,9.59,4.28,12.18,8.22,4.66,7.18,8.78,16.67,16.61,20.68,1.53,.84,3.19,1.39,4.91,1.65,.45,.06,.91,.08,1.36,.06,.42-.02,.84-.02,1.26,0-.06,.3,.11,.61,.4,.71,.29,.09,.61-.02,.78-.27,.15,.24,.43,.37,.71,.35,.17,0,.33-.11,.38-.28,1.44,.35,2.92,.51,4.39,.74,.19,0,.4,0,.55,.23-.89,1.14-3.27,3.61-4.74,3.72-.7,.07-1.4,.22-2.11,.25-.71,.05-1.41,.19-2.08,.41-2.53,.76-4.1,3-5.45,5.15-.59,1-1.11,2.05-1.56,3.12-.13,.35-.42,.63-.78,.75-5,1.88-10.21,3.15-15.51,3.79-7.19,1-14.66,1.74-21.18,5.17C5.27,90.7,.73,96.22,.07,102.66H.07c.16,.1,.33,.2,.51,.27,1.74,.75,3.13,2.13,3.9,3.86,.69,1.3,1.25,2.66,1.67,4.07,1.08,3.64,2.11,7.29,3.06,11,1.46,5.9,3.64,12,8.42,16.07,1.97,1.73,4.32,2.96,6.86,3.58,.42,.1,.85,.12,1.28,.07,.31-.02,.59-.18,.77-.43,2.9-3.81,5.77-7.63,8.66-11.44,.14-.18,.28-.37,.54-.38,2.3,.85,7.94,4.23,9,5.39-2.12,2.46-4.46,4.71-7,6.73-2.77,2.32-5.48,4.73-8.32,7-.36,.26-.65,.61-.86,1-.64,1.59-.74,3.35-.28,5,1.59,6.95,6,12.93,11.15,17.74,15.58,14.79,39.09,19.13,59.66,14.5l-1.2-1.78c-2.58-3.87-3.11-8.75-1.43-13.09,1.56-4.56,4.92-8,8.19-11.45,4.44-4.51,9.11-8.78,14-12.8,3.44-2.66,6.73-5.53,9.83-8.58,1.39-1.49,2.86-3.45,2.67-5.49-.09-.7-.57-1.28-1.23-1.52-.38-.19-.78-.36-1.19-.49-.64-.23-1.26-.53-1.83-.9-2.77-1.87-4.88-4.59-6-7.74-.26-.85-.46-1.68,.27-2.39,5.46-5.14,10.23-10.97,14.19-17.34,1.82-2.98,3.37-6.13,4.62-9.39,2.27-5.48,3.83-11.22,4.65-17.09,1.28-9.13,1.66-18.36,1.15-27.57m-25,4.36c1.8-1.36,2.53-1.58,3.81-2.6,1.22-.91,2.37-1.92,3.45-3,2.87-2.69,4.93-6.08,7.52-9-.47,1.06-.86,2.16-1.17,3.28-.56,2.1-1.14,4-1.72,6-.48,1.65-.9,3.34-1.4,5-1.23,4.19-2.69,8.3-4.38,12.33,.06-3.05-1.08-6.01-3.18-8.23-.87-1.02-1.79-1.99-2.76-2.91-.2-.17-.37-.38-.48-.62,.1-.11,.21-.21,.33-.3m-12.68-12.66c1.06,.31,1.33,.61,1.37,1.71-.35-.57-.87-1.03-1.49-1.29l.12-.42m.26,1c.29,.16,.52,.41,.65,.71,.13,.27,.16,.59,.09,.88-.06,.15-.14,.29-.24,.42-.28-.64-.8-1.15-1.45-1.42,.15-.28,.32-.55,.41-.71,.19-.03,.39,.01,.54,.13m-37.35,18.15c-.89,.09-1.27-.18-1.44-1-.07-.29-.07-.6,0-.89,.03-.21,.15-.4,.33-.52l1,.16c-.33,.73-.3,1.57,.1,2.27m-.18-2.69c-.15-.03-.28-.14-.33-.28-.28-.75,.01-1.59,.7-2,.11-.05,.28,0,.43,0-.3,.73-.3,1.54,0,2.27-.26,.08-.53,.08-.79,0m.44,.59c.04-.06,.09-.1,.15-.13,.36-.03,.72-.03,1.08,0-.17,.72-.06,1.48,.3,2.13-.3,.18-.66,.24-1,.17-.15-.03-.29-.1-.39-.21-.21-.23-.34-.52-.36-.83-.04-.38,.02-.76,.19-1.1m1.65-.65c-.25,.1-.52,.1-.77,0-.5-.61-.5-1.49,0-2.1,.12-.2,.39-.26,.59-.14-.2,.73-.14,1.51,.17,2.2m.1,.44l1-.12c-.03,.38-.03,.75,0,1.13,.08,.34,.18,.67,.3,1l-.51,.14c-.27,.09-.57-.03-.71-.28-.17-.25-.26-.55-.28-.85-.08-.37,0-.75,.21-1.06m.5-.5c-.6-.59-.67-1.53-.17-2.2,.11-.03,.22-.05,.33-.06,.12,0,.24,0,.36,0,0,.36,.02,.71,.06,1.07,.09,.36,.2,.71,.33,1.06-.29,.13-.61,.17-.92,.12m.83,.73c.02-.12,.08-.24,.17-.32,.06-.04,.13-.07,.2-.09,.24-.1,.5-.13,.75-.09-.14,.44-.14,.91,0,1.35,.05,.21,.14,.43,.22,.69-.22,.16-.5,.22-.76,.16-.12-.03-.23-.1-.3-.2-.2-.3-.32-.64-.35-1-.02-.18-.02-.35,0-.53m.82-.91c-.33-.19-.57-.52-.63-.9-.16-.42-.13-.89,.07-1.29l1-.14c-.03,.75,.12,1.5,.43,2.18l-.92,.15m.85-2c-.02-.21,.14-.4,.35-.43,.24-.05,.49-.09,.75-.13,.05,.41,.07,.78,.16,1.15,.09,.34,.2,.67,.33,1-.33,.15-.71,.21-1.07,.16-.38-.51-.56-1.13-.52-1.76m-.14,2.57c.03-.16,.16-.28,.32-.29,.29-.08,.6-.12,.9-.12-.03,.34,0,.67,.09,1,.1,.35,.24,.68,.41,1-.4,.16-.82,.26-1.25,.3-.48-.51-.66-1.24-.46-1.92m1.69-.52l1.1-.24c.14,.67,.28,1.33,.41,2-.35,.24-.36,.24-1,.29-.51-.53-.71-1.29-.52-2m.7-.55c-.28-.11-.48-.35-.54-.64-.09-.25-.16-.5-.21-.76-.02-.26,0-.52,.06-.77,.2-.05,1-.33,1.08-.2s.08,.43,.1,.57c.03,.17,.07,.34,.12,.51,.13,.34,.28,.67,.44,1l-1.06,.24m26.97-14.45c.48,.1,.9,.39,1.14,.82,.2,.25,.17,.62-.07,.83-.12,.13-.26,.24-.43,.4-.27-.69-.76-1.27-1.39-1.65,.02-.17,.15-.32,.32-.36,.14-.04,.3-.04,.44,0m-.08-.35v-.09c.06-.16,.16-.29,.29-.4,.16-.13,.37-.2,.58-.2,.4,.04,.78,.22,1.07,.51,.27,.22,.32,.61,.11,.89-.08,.13-.17,.25-.27,.39-.07,0-.16-.06-.19-.11-.17-.27-.4-.51-.66-.7-.13-.09-.27-.17-.41-.24-.17-.07-.35-.11-.53-.14m-.51,1.38c.46,.29,.76,.78,.82,1.32-.08,.1-.17,.19-.26,.27-.1,.09-.21,.16-.33,.23h0c-.08-.22-.19-.44-.31-.64-.14-.18-.25-.39-.41-.56-.17-.16-.34-.31-.53-.45,.17-.31,.37-.38,.62-.32,.15,.03,.29,.09,.42,.17m-.8,.84c.34,.35,.53,.81,.55,1.3-.21,.27-.48,.47-.8,.59-.14-.72-.54-1.36-1.12-1.8l.62-.46c.29,0,.57,.13,.75,.36m-.7,1.95c.03,.15-.04,.31-.16,.4l-.69,.5c-.19-.7-.57-1.33-1.09-1.83,.26-.28,.57-.5,.92-.66,.57,.34,.94,.93,1,1.59m-1.28,1.11c-.23,.24-.5,.43-.81,.55-.2-.06-.18-.24-.24-.37-.18-.53-.48-1-.87-1.4v-.16c.27-.2,.58-.35,.91-.44,.59,.42,.96,1.09,1,1.82m-1.81-.55c.3,.41,.46,.9,.46,1.4-.32,.27-.69,.49-1.09,.63-.09-.75-.41-1.45-.93-2,.08-.07,.16-.14,.25-.2l.64-.35c.29,.05,.54,.24,.67,.5m-1,2c.02,.16-.06,.3-.2,.38l-.91,.48c-.14-.39-.24-.75-.39-1.08-.17-.32-.36-.62-.57-.92,.36-.25,.74-.46,1.15-.61,.56,.41,.9,1.06,.92,1.75m-1.91-.21c.25,.39,.35,.86,.28,1.32-.33,.24-.7,.42-1.1,.53-.18-.68-.47-1.32-.87-1.9,.08-.27,.31-.29,.48-.39s.36-.17,.55-.25c.36,.1,.52,.41,.67,.69m-1.66,.83c.21,.38,.31,.8,.3,1.23-.15,.23-.41,.28-.63,.39l-.64,.29c-.07-.07-.13-.14-.19-.22-.25-.52-.5-1-.74-1.57-.01-.07-.01-.15,0-.22,.44-.25,.9-.46,1.38-.61,.26,.17,.45,.42,.56,.71m-1.58,2.14c-.52,.32-1.08,.56-1.66,.73l-.84-2c.51-.28,1.04-.53,1.59-.73,.48,.57,.8,1.26,.91,2m-2.13,1c-.55,.28-1.12,.53-1.71,.73-.39-.61-.68-1.29-.83-2,.52-.29,1.07-.54,1.64-.74,.43,.62,.73,1.32,.9,2.06m-2.34,.94c-.55,.3-1.14,.52-1.75,.67-.36-.62-.61-1.3-.73-2,.1-.08,.2-.15,.31-.2,.46-.22,.94-.38,1.44-.47,.3,.64,.54,1.31,.72,2m-2.29,.82c-.54,.27-1.09,.48-1.67,.64-.09-.11-.17-.23-.24-.35-.26-.53-.4-1.1-.41-1.69,.53-.26,1.08-.47,1.64-.63,.23,.7,.45,1.36,.68,2m-2.27,.76c-.44,.25-.91,.43-1.41,.54-.44-.58-.68-1.28-.7-2,.22-.17,.48-.29,.76-.34l.78-.26,.58,2m-2,.6c-.34,.28-.78,.41-1.22,.39-.47-.53-.69-1.24-.62-1.94,.37-.23,.79-.36,1.23-.37,.09,.36,.17,.7,.27,1s.23,.6,.34,.9m-1.71,.48c0,.15-.15,.19-.28,.21-.29,.1-.59,.16-.89,.16-.32-.24-.55-.6-.62-1-.14-.34-.14-.72,0-1.06,.38-.14,.78-.22,1.19-.24,.07,.35,.13,.69,.22,1s.23,.6,.35,.91m-1.81,1.11c.38-.24,.83-.37,1.28-.37l.53,1.88c-.43,.27-.92,.43-1.43,.45-.34-.61-.47-1.31-.38-2m1.68-.52l.73-.21,.33-.09c.07-.04,.16-.07,.24-.09,0,0,.27,.82,.29,.87l.36,1.09c-.41,.21-.86,.35-1.32,.41-.37-.6-.59-1.29-.63-2m1.76-.41c.45-.27,.96-.45,1.48-.53l.63,1.64c.04,.07,.07,.14,.09,.22-.5,.23-1.02,.42-1.55,.55-.34-.58-.56-1.22-.65-1.88m1.89-.65c.51-.24,1.05-.43,1.6-.54,.3,.6,.54,1.22,.71,1.87l-1.55,.55c-.08-.11-.15-.24-.21-.37-.22-.48-.41-.99-.55-1.5m2.06-.68c.51-.26,1.05-.47,1.6-.62,.33,.59,.6,1.22,.78,1.87-.52,.25-1.07,.44-1.63,.58-.34-.56-.59-1.18-.75-1.82m2.08-.69c.66-.39,1.38-.68,2.12-.86l.68,1.75c-.3,.22-.64,.39-1,.5-.32,.14-.69,.26-1,.41-.09-.13-.56-1.32-.74-1.8m2.48-1.07c.52-.27,1.05-.51,1.59-.72,.34,.54,.59,1.14,.73,1.76-.45,.39-1,.65-1.58,.75-.31-.57-.55-1.17-.74-1.79m2.05-.91c.49-.27,1-.5,1.52-.69,.35,.55,.62,1.16,.8,1.79-.11,.08-.22,.15-.34,.2l-1.27,.6c-.07-.11-.51-1.34-.72-1.9m1.94-.81c.44-.31,.93-.56,1.45-.72,.37,.5,.64,1.07,.79,1.67-.42,.37-.93,.63-1.48,.76-.29-.55-.55-1.12-.77-1.71m1.83-.9c.09-.08,.18-.15,.28-.21l.91-.47c.43,.5,.75,1.1,.92,1.74-.39,.3-.82,.53-1.28,.69-.14-.32-.26-.62-.4-.9s-.28-.54-.44-.84m1.57-.91l1.16-.63c.53,.43,.91,1.02,1.09,1.68-.24,.2-.5,.37-.79,.49-.17,.09-.35,.16-.52,.24l-.94-1.77m1.51-.81c.36-.24,.74-.45,1.13-.64,.51,.43,.86,1.02,1,1.68-.3,.26-.64,.47-1,.62-.33-.6-.73-1.15-1.2-1.65m1.53-.86c.26-.26,.57-.48,.9-.65,.3,.06,.57,.25,.74,.51,.28,.33,.43,.74,.44,1.17l-1,.64c-.28-.61-.65-1.17-1.1-1.67m1.31-.89c.21-.25,.48-.44,.77-.58,.35,.04,.67,.24,.85,.55,.27,.3,.39,.69,.35,1.09l-.67,.5s-.07-.06-.09-.1c-.25-.59-.67-1.1-1.2-1.46m1.21-.89l.9-.66c.68,.3,1.13,.95,1.18,1.69l-.85,.64c-.03-.05-.06-.11-.08-.17-.2-.62-.6-1.15-1.15-1.5m2-.21c-.24-.24-.49-.46-.77-.66,0,0,.39-.36,.52-.5,.19-.22,.51-.28,.76-.14,.56,.19,.95,.69,1,1.28-.24,.36-.56,.66-.92,.9-.16-.31-.34-.6-.55-.88m.48-1.7c-.07-.15,.1-.26,.17-.36l.48-.61c.62,.15,1.11,.61,1.3,1.22,.04,.14,.04,.29,0,.43-.04,.09-.1,.18-.17,.25l-.33,.39c-.31-.59-.81-1.06-1.42-1.33m1-2.56s-.07,.06-.11,.09c-.18-.11-.35-.22-.52-.35-.12-.07-.25-.15-.37-.21-.35-.19-.77-.24-1.16-.13,.02-.12,.06-.23,.11-.34v-.06s.06,0,.09,0c.34-.14,.71-.17,1.06-.09,.31,.07,.59,.25,.78,.5,.16,.17,.19,.42,.09,.63m-1.27-2.09c.61,.07,1.13,.5,1.3,1.09,0-.07-.12-.14-.18-.17-.28-.15-.59-.26-.91-.31-.44-.09-.89,0-1.26,.24-.05-.11-.14-.2-.25-.25,.17-.19,.37-.36,.59-.5,.22-.11,.47-.15,.71-.11m-1.93,.06c.03-.05,.06-.1,.1-.15,.28-.32,.66-.24,1-.14-.33,.17-.62,.42-.83,.73l-.32-.07h0c0-.11,.03-.21,.07-.31m-1.09-.11c.01-.1,.05-.19,.11-.27h.34c.13,0,.25,.05,.35,.13-.07,.16-.12,.32-.17,.49-.21-.07-.44-.11-.66-.12,0-.06,0-.13,0-.19m-32.9,14.67c2.44-6.87,10.49-10.89,17-13,1.63-.51,3.3-.88,5-1.1,3.31-.61,6.7-.59,10,.05,.84,.11,1.58,.61,2,1.35-.12,.45-.38,.86-.74,1.16-.4,.34-.81,.69-1.23,1-4.15,2.82-8.61,5.15-13.29,6.94-5.08,2.24-10.48,3.71-16,4.34-.71,.1-1.42,.08-2.12-.07-.12-.03-.24-.07-.36-.12-.21-.1-.33-.33-.29-.56m0,1.1c.09,0,.17,.03,.26,.05,0,.26-.28,.41-.35,.65-.08,.24-.14,.48-.18,.73-.02,.28-.02,.57,0,.85-.26-.06-.46-.09-.65-.15-.23-.06-.39-.27-.37-.51,0-.7,.43-1.34,1.09-1.58,.07-.01,.15-.01,.22,0m-2,2.73c.09-.17,.21-.33,.34-.47l.72,.29c-.13,.41-.2,.84-.22,1.27,.06,.42,.16,.84,.31,1.24-.39-.24-.73-.56-1-.94-.27-.41-.33-.92-.15-1.38m-.29-1.75c.09-.69,.63-1.24,1.32-1.34,0,0,.09,0,.17,.06-.25,.27-.48,.56-.67,.87-.13,.35-.23,.71-.29,1.07-.46-.17-.55-.28-.52-.66m1.37-3.55c.09-.14,.24-.24,.41-.27,.06,0,.13,.06,.22,.11l-.33,.69c-.18-.05-.35-.13-.5-.24,0,0,.18-.26,.2-.29m-.23,.59c.25,0,.33,.16,.38,.52h-1.13c.17-.33,.36-.58,.74-.52m-1.53,1.81c.17-.49,.61-.85,1.13-.9h.34c.12,0,.23,0,.35,0-.27,.17-.51,.4-.78,.58-.24,.14-.46,.33-.64,.55-.1,.12-.18,.25-.26,.39-.05,.09-.21,.34-.19,.44-.08-.35-.06-.72,.06-1.06m-.26,3.13c.1-.35,.25-.69,.44-1,0,0,.12-.06,.19-.06s.08,.06,.12,.09c-.14,.32-.23,.66-.28,1-.03,.45,.02,.9,.16,1.33-.24-.17-.42-.4-.55-.67-.09-.22-.12-.46-.07-.69m.17,3.11c0,.13,0,.27-.07,.4-.49,.16-1,.24-1.52,.24,.1,0,.31-.16,.39-.19l.44-.17c.26-.09,.48-.21,.75-.28m-4.14-1c.89-.48,1.76-1,2.63-1.51l.86-.5c0,.61,.16,1.21,.45,1.75,0,.06-.52,.42-.59,.47-.8,.51-1.65,.95-2.53,1.3-.06-.26-.24-.48-.49-.59-.26-.09-.53-.09-.79,0-.24,.03-.46,.13-.64,.28-.06-.11-.14-.2-.24-.27,.42-.35,.88-.66,1.35-.93m-28.94-28.39c-.27-1.06-.54-2.11-.72-3.19-.05-.26-.11-.52-.19-.78,2.15,3.15,2.89,7,3.36,10.74,.24,1.32,.4,2.66,.48,4-.9-3.62-2-7.18-2.92-10.8m20.74,28.53c-.18,.14-.35,.29-.5,.47-.12,.13-.2,.28-.31,.43-2.45,0-6.78-3.17-8.65-4.8-5.46-4.59-6.9-9.3-7.8-16.14-.61-4.8-1.26-10-4.42-13.83-.36-.43-.61-.94-.73-1.48-.33-1.3-.8-2.55-1.26-3.82-.84-1.97-1.93-3.81-3.24-5.5,5-.74,10.38,1.44,12.7,6.13,1.93,3.75,1.81,8.07,2,12.18,.18,4.92,.47,9.93,2.67,14.44,2.54,5.46,6.88,10.37,12.94,11.78-.48,.22-1,.36-1.47,.6,.01-.13-.09-.25-.22-.27-.13-.01-.26,.01-.38,.07-.06-.66-1-.52-1.35-.25m4.47,1.8c-.14-.07-.29-.12-.44-.14-.48-.16-1.01-.03-1.38,.32-.12,.12-.21,.26-.33,.37h-.07l-.74-.33c.11-.18,.23-.35,.36-.51,.11-.13,.25-.24,.4-.31,.29-.14,.6-.25,.91-.33,.22-.06,.16,0,.24,.15,.05,.12,.15,.2,.27,.24,.19,.05,.4-.02,.52-.17-.01,.24,.17,.45,.42,.46,.02,0,.05,0,.07,0,.53-.05,1.02-.26,1.43-.6,.13,.19,.27,.37,.42,.54,0,0-.1,.32-.13,.37s-.12,.24-.19,.36c-.04,.08-.09,.15-.15,.21-.22,.25-.64,.09-.93,.16l-.41-.56c-.06-.09-.13-.17-.22-.24m.17,1.75c.36-.41,.95-.29,1.43-.32,.01,.14,.11,.27,.24,.32,.13,.03,.28,.03,.41,0,.28,0,.53-.15,.68-.38,0-.03,.03-.06,.05-.08h.07c1.06-.26,2.14-.41,3.23-.45h.42c-.23,.39-.52,.75-.86,1.06-1.89,.13-3.8,.08-5.68-.17m4.48,2.61c1.26-1.85,2.94-3.37,4.91-4.43,.99-.52,2.06-.86,3.17-1,2.05-.26,4.09-.63,6.1-1.1-3.38,2.36-7,4.36-10.46,6.56,2.08-1.14,4.17-2.28,6.29-3.34,3.11-1.68,6.42-2.95,9.62-4.45,3.82-1.76,7.93-2.88,11.6-5-3.09,1.91-5.73,4.44-7.77,7.44,.67-.8,1.48-1.47,2.38-2,.98-.6,2-1.13,3.06-1.59,1.77-.81,3.59-1.51,5.39-2.27,1.55-.62,2.95-1.57,4.1-2.79,.28-.32,1.62-1.56,.5-1.72-.21-.01-.42,.02-.62,.09l-2.35,.7c1.4-.59,2.72-1.34,3.94-2.25,1.41-1.02,2.75-2.14,4-3.35l.57-.59c.17-.18,.32-.38,.45-.6-.08,1.36,0,2.72,.26,4.05,.06,.18,.09,.36,.1,.54,.03-.96,.27-1.91,.71-2.77,.18-.31,.72-1.14,1.09-1.06,.18,0,.31,.31,.42,.45l.59,.73c2.2,2.55,4.54,4.97,7,7.27,1.36,1.33,2.57,2.79,4,4.06,1.64,1.46,2.72,3.44,3.06,5.61,.54,4.49-1.9,9.28-5.36,12.06-1.52,1.24-3.35,2.04-5.3,2.3-5,.74-10,0-14.94-.74-3-.45-5.94-1.24-8.89-1.9-4.65-1.16-9.26-2.52-14-3.48-3.35-.87-6.74-1.53-10.17-1.98-1.79-.33-3.61-.51-5.43-.54-.14-.01-.29-.04-.43-.07,.84-1,1.56-1.82,2.42-2.78m-14.91,12c2.53-6.35,7.74-8.58,14.28-8.41,3.69,.15,7.35,.69,10.93,1.61,4.55,1.13,9.25,2.33,13.78,3.45,2.3,.57,4.43,1.06,6.74,1.62l1.42,.37h0c-.3-.05-.63,0-.92-.05l-1.43-.11c-1.86-.21-3.73-.28-5.6-.22-2.35,.14-4.67,.51-7,.75-2.06,.22-4.12,.48-6.16,.83-5.33,.7-10.62,1.74-15.82,3.11,4.4-.77,8.77-1.57,13.19-2.08,.46-.06,.92-.06,1.38,0-4.95,1.53-9.78,3.45-14.44,5.73-4.71,2.18-9.09,5-13.74,7.28-1.12,.54-2.3,.97-3.51,1.27,1.36-1.23,2.39-2.77,3-4.49,1.36-3.54,2.31-7.22,3.85-10.7m-33.11,9.06c.87-.46,1.81-.79,2.77-1,4.59-1.11,9.39-1.55,14-2.25,4.84-.71,9.58-1.97,14.14-3.75-.02,.13-.04,.26-.07,.39-.74,2.24-1.46,4.47-2.21,6.69-.64,1.92-1.72,4.25-3.4,5.46-2.71,1.77-6.1,.62-8.89-.34-1.84-.63-3.66-1.32-5.48-2-3.46-1.27-7.09-3.11-10.85-3.07-.21,0-.24,0,0-.14m11.14,50.32c-.32-3.18-1.77-5.7-2.44-8.73-.11-.45-.14-.92-.1-1.38,.39-.57,2.26-.19,2.91-.13,1.99,.19,3.95,.59,5.85,1.19,.29,.05,.55,.19,.73,.42-2.06,3.07-4.38,5.96-6.94,8.63m5.18,10.77c.21-.18,.39-.37,.6-.55,1-.88,2-1.77,3-2.67,1.65-1.5,3.22-3,4.73-4.66s2.92-3.45,4.4-5.14c4.32,3.27,11.48,10.51,13.06,15.68,.15,.75,.17,1.1-.83,1.4-3.56,1.07-7.38,.63-10.94-.24-4.19-1-7.32-2.77-12.67-3.63-.53-.05-1.06-.05-1.59,0l.2-.17m89.38-20.74c.82,1.16,1.76,2.22,2.81,3.17,.19,.17,.37,.34,.55,.52,.11,.11,.1,.29,0,.4-.02,.02-.05,.04-.08,.05-.14,.07-.28,.11-.43,.14-3.38,.54-8.93,1-12-.58-.37-.15-.55-.57-.4-.94,0-.02,.02-.04,.03-.06,.13-.35,.31-.69,.52-1,1.7-2.45,3.61-4.76,5.71-6.88,.27-.31,.58-.58,.93-.8,.1,.52,.19,.94,.28,1.36,.38,1.66,1.1,3.22,2.12,4.58m23.29-68c-.07,9.11-1.27,18.18-3.58,27-1.41,4.65-3.24,9.17-5.47,13.49-1.3,2.46-2.89,4.76-4.39,7.1-2.34,3.37-5.04,6.48-8.05,9.27-2.49,2.46-5.14,4.75-7.49,7.35-1.29,1.36-2.47,2.83-3.51,4.39,.33-1.63,.79-3.23,1.36-4.79,.9-2.84,1.9-5.65,2.63-8.54,.63-2.71,1.12-5.44,1.64-8.16,.45-2.14,.78-4.3,1-6.47l-2.44,11.84c-1.12,5.49-3.18,10.7-5,16-.25,.71-.51,1.43-.74,2.15-.1,.36-.16,.73-.16,1.11-.07,.29,.05,.59,.3,.75,.38,.21,.78,.37,1.19,.48,.51,.16,1.03,.29,1.56,.38,1.98,.38,3.99,.52,6,.42,2-.13,4.08-.34,6.12-.49,.58-.03,1.17,.01,1.74,.13,.24,.06,.48,.16,.7,.28,.68,.33,1.05,1.09,.9,1.83-.08,.45-.24,.88-.47,1.27-1.02,1.57-2.28,2.98-3.73,4.17-4.16,4-8.86,7.39-13.14,11.27-2.71,2.32-5.37,4.7-7.87,7.25-4.28,4.27-8.57,9.1-9.87,15.18-.72,3.83-.1,7.79,1.78,11.21-4.57,.87-9.22,1.29-13.87,1.28-2.48,.04-4.96-.1-7.42-.4-10.44-1.14-20.76-4.57-29.29-10.79-2.41-1.77-4.67-3.73-6.77-5.85-4.3-4.3-8-9.56-9.27-15.58-.16-.82-.23-1.65-.21-2.49,0-1.35,1.22-1.53,2.3-1.63,1.14-.03,2.27,.09,3.38,.35,4.31,.92,8.4,2.62,12.67,3.64,1.67,.42,3.37,.68,5.08,.79,1.47,.12,2.94,0,4.37-.36,1.33-.18,2.39-1.18,2.66-2.49,.66-2.86,1.16-5.76,1.51-8.67,.22-1.75,.47-3.51,.77-5.25,1.07-7.43,2.64-14.78,4.69-22,1.34-4.38,3.05-8.65,5.12-12.74-.59,.88-1.1,1.8-1.54,2.76l-1.28,2.82c-2.51,5.67-4.49,11.56-5.92,17.6-1.47,6-3.43,16.27-4.43,21.58-.09-.3-.23-.59-.4-.86-.61-1.04-1.28-2.04-2-3-4.16-5.6-9.38-10.34-15.36-13.93-3.63-2.23-7.62-3.82-11.8-4.67-.45-.09-.9-.16-1.35-.19h-.16l.13-.13c4.24-3.16,8.19-6.7,11.79-10.58,3.08-3.31,5.86-6.87,8.32-10.66-2.7,3.67-5.68,7.13-8.91,10.34-2.75,2.87-5.79,5.45-9.05,7.72-1.6,1.07-3.27,2.03-5,2.88-.52,.25-1.03,.53-1.51,.85-.05,.31-.05,.62,0,.93,.3,1.82,.76,3.62,1.37,5.36,.52,1.59,1,3.19,1.36,4.81,.1,.52,.14,1.06,.12,1.59,0,.95-.76,1.73-1.71,1.73-.03,0-.07,0-.1,0-.99-.02-1.96-.26-2.86-.68-4.94-2.38-8.09-7.25-9.95-12.25-1.89-5.53-3.08-11.27-4.85-16.84-.48-1.58-1.12-3.1-1.92-4.54-.8-1.56-2.02-2.86-3.52-3.76,1-5.47,4.56-10.68,9.75-13,1.45-.61,3.03-.86,4.6-.73,1.13,.08,2.26,.22,3.38,.42,3.24,.62,6.25,2,9.33,3.14l5.83,2.15c1.17,.41,2.39,.68,3.62,.8,.2,.02,.41,.02,.61,0,2.05-.06,4.07-.54,5.94-1.4,5.47-2.68,10.63-6,16.19-8.5,9.71-4.66,20.34-7.92,31.21-7.35,3.71,.19,7.41,.55,11.11,.9,2.52,.24,5,.51,7.56,.57,1.67,.03,3.34-.02,5-.17,1.34-.12,2.64-.54,3.79-1.24,4.32-2.44,6.73-6.94,8.41-11.44,1.05-2.72,1.93-5.49,2.73-8.29,1.08-3.67,2-7.38,2.9-11.09,1.04-3.67,2.38-7.25,4-10.71,.3-.59,.6-1.17,.95-1.73,.19-.32,.43-.62,.71-.88,1.23-1.17,2.51-.44,3.22,.92,.18,.32,.33,.65,.45,1,.59,1.67,.99,3.4,1.19,5.16,.06,1.06,.33,2.1,.44,3.15s.27,2.31,.39,3.47c.35,4.03,.48,8.08,.39,12.13"/><path class="cls-12" d="M101.64,75.91l.81,.34c-1.76-.31-3.48-.77-5.22-1.13l-5.42-1.15-.49-.1c-1.13-.24-2.29-.44-3.44-.67,1.82,.06,3.64,.27,5.43,.62,2.83,.46,5.62,1.16,8.33,2.1"/><path class="cls-12" d="M127.38,61.4c-.1,.72-.24,1.43-.41,2.14,.17-1.85,.23-3.71,.19-5.57-.02-1.13-.12-2.26-.31-3.37-.1-.51-.71-2.63-.9-3.21,1.11,1.81,1.7,3.88,1.71,6,.02,1.34-.08,2.68-.28,4"/><path class="cls-12" d="M119.62,68.5c-.52,.21-1.07,.37-1.59,.58-2.88,1.11-5.86,1.91-8.91,2.38-.97,.21-1.99,.11-2.89-.31,.63-.03,1.23-.26,1.73-.65-.15,.02-.3,.02-.45,0h-.4c-.71,.02-1.41,.12-2.09,.29-.83,.21-1.55,.74-2,1.48,0-.07,.21-.14,.28-.18l.32-.18c.22-.12,.45-.21,.69-.27,.36-.11,.76-.02,1.05,.22,.62,.55,1.29,1.05,2,1.49,1.29,.64,2.67,1.06,4.1,1.24,.7,.13,1.42,.2,2.13,.22,.63,.02,1.25-.12,1.8-.43,.43-.31,.82-.69,1.13-1.12,.43-.51,.82-1.06,1.23-1.58,.82-1.17,1.71-2.27,2.68-3.32,.19-.22,.4-.41,.64-.58-.49,.28-1,.54-1.52,.75m-.17,.49c-.8,.74-1.65,1.43-2.47,2.16-.24,.16-.44,.37-.6,.61-.14,.27-.1,.58-.21,.86-.13,.28-.3,.53-.52,.75-.32,.37-.79,.59-1.28,.6-1.82,.29-3.68,.1-5.4-.55-.37-.15-.71-.36-1.01-.63-.04-.06-.03-.14,.02-.18,.02-.02,.05-.03,.08-.03,.42,.02,.83-.01,1.24-.1-.44-.04-.88-.16-1.28-.35,3.83-.45,7.57-1.52,11.05-3.18,.25-.12,.51-.22,.76-.34-.11,.1-.21,.2-.31,.31"/><path class="cls-12" d="M106.99,59.24c-.98-2.28-3.25-3.74-5.73-3.68-3.75-.08-7,2.57-7.67,6.26-.41,2.79,1,4.87,3.39,6.17-.99,.16-1.96,.47-2.85,.93,.53-.07,3-.48,3.76-.51,.75-.04,1.51-.04,2.26,0,1.58,.14,3.18,.12,4.76-.07,1.86-.28,2.87-2.05,3.1-3.76,.2-1.82-.15-3.67-1-5.29m-5.8,8.51h-3.43c-.53-.07-1.01-.33-1.35-.73-2.44-2-2.23-5.68-.13-7.83,1.01-1.1,2.31-1.9,3.75-2.31,3.05-.92,6.28,.79,7.23,3.83-.81-1.36-2.56-1.8-3.92-1-.2,.12-.38,.26-.55,.43-2.1,1.52-2.57,4.46-1.04,6.56,.41,.57,.95,1.04,1.57,1.38h0c-.7-.2-1.42-.32-2.15-.35m6.19-1.82c-.85,1.48-3.16,2.66-4.65,1.39-.75-.65-1.24-1.55-1.37-2.53-.33-2.06,.89-4.55,3-5.08,1.02-.2,2.05,.21,2.66,1.05,.51,.76,.8,1.65,.82,2.57,.11,.9-.05,1.8-.46,2.61"/><path class="cls-12" d="M107.66,63.9c0,1.78-1.16,3.22-2.58,3.22s-2.58-1.44-2.58-3.22,1.16-3.22,2.58-3.22,2.58,1.44,2.58,3.22"/><path class="cls-2" d="M103.29,63.9c0,.44-.35,.8-.79,.81-.44,0-.8-.35-.81-.79,0-.44,.35-.8,.79-.81,0,0,.01,0,.02,0,.44,0,.79,.35,.79,.79h0"/><path class="cls-12" d="M120.89,58.39c-.02-.19-.08-.38-.17-.55-.07,0,0,.24-.06,.32-.02,.14-.05,.28-.09,.42-.02,.12-.09,.24-.18,.32-.14-.36-.24-.72-.41-1.07-1.71-2.88-4.07-5.32-6.9-7.12-.41-.3-.87-.52-1.36-.65-.24-.06-.49-.09-.74-.09-.27,0-.48,.21-.5,.48-.03,.2-.03,.4,0,.6,.54,2.65,2.58,5.25,4,7,1.09,1.41,3.82,4.5,5.39,3.7,.41-.19,.73-.56,.85-1,.2-.76,.25-1.55,.15-2.33m-6.65-2.41c-.36,.38-.43,.94-.18,1.4-.58-1-3.93-5.5-1.86-5.75,.25-.02,.5,0,.74,.08,.48,.16,.94,.37,1.38,.61,2.35,1.47,4.27,3.54,5.55,6h0c-.06-.09-.13-.17-.2-.25-.22-.26-.46-.51-.71-.75-.31-.31-.64-.58-1-.83-.24-.16-.48-.3-.74-.42-.77-.4-2.29-.75-3-.06m5.89,5c-.19,.41-.63,.65-1.08,.6,0,0-.14-.06-.18-.05,.49-.08,.88-.45,1-.93,.36-1.68-1.71-3.62-3.24-3.95-.51-.12-1.44-.17-1.77,.34-.24,.52-.15,1.13,.23,1.56h0c-.21-.22-.38-.47-.52-.74-.31-.62-.05-1.37,.56-1.68,.14-.07,.28-.11,.44-.12,.85,0,1.69,.25,2.39,.74,1.25,.82,3,2.63,2.16,4.23"/><path class="cls-2" d="M116.95,58.68c0,.37-.3,.67-.67,.67s-.67-.3-.67-.67,.3-.67,.67-.67,.67,.3,.67,.67h0"/><path class="cls-3" d="M197.89,98.07c-2.51,7.6-8.8,13.34-16.6,15.15,0-.11,0-.78,1.35-2.4-1.69,.47-3.41,.8-5.15,1,0,0,1.84,1,1.69,1.77-7.91,1.07-15.8-2.05-20.84-8.23,.21-.13,1.39-.58,6.4,.93-.88-1.39-1.67-2.84-2.37-4.33,0,0-3.08,3.64-6.74-.77-2.41-4.81-3.06-10.31-1.84-15.55,1.6-4.86,4.62-4.91,4.62-4.91,.22-1.3,.54-2.58,.95-3.83-1.68,1.56-3.17,3.32-4.44,5.23,4.84-11.71,18.25-17.28,29.96-12.44,3.08,1.27,5.84,3.2,8.1,5.64-1.8-1.3-3.71-2.43-5.72-3.37,.83,.98,1.58,2.02,2.25,3.12,1.57-.34,3.21,.13,4.35,1.27,4.09,4.98,5.91,11.45,5,17.83-1.87,3.84-5.25,2.13-5.25,2.13-.17,1.62-.45,3.23-.84,4.81,4.45-3.57,5.07-3.24,5.16-3"/><path class="cls-2" d="M193.61,96.3c.35,.16,.71,.27,1.09,.33,3.73-5.52,3.95-12.69,.56-18.43-.42-.64-.88-1.26-1.37-1.85-1.14-1.14-2.78-1.61-4.35-1.27-.67-1.1-1.42-2.14-2.25-3.12,2.01,.94,3.92,2.07,5.72,3.37-8.6-9.29-23.11-9.85-32.4-1.25-1.37,1.27-2.57,2.69-3.6,4.25-.51,.89-.95,1.82-1.3,2.79,1.09-1.53,2.34-2.94,3.72-4.21-.41,1.25-.73,2.53-.95,3.83-1.4,.2-2.63,1.03-3.34,2.26-.31,1.31-.47,2.65-.47,4,0,10.54,9.63,19.08,21.51,19.08,6.56,.1,12.83-2.68,17.18-7.59,.14-.71,.24-1.43,.28-2.15"/><path class="cls-12" d="M171.43,69.47c-.83-.21-1.69-.29-2.55-.25-3.15,1.96-6.06,4.27-8.69,6.88,.95,0,1.89,.08,2.83,.23,0,0,1.18-4.89,8.41-6.86"/><path class="cls-12" d="M170.3,90.55c3.34-2.9,7.98-3.78,12.15-2.3,0,0-.64-3.38-1-5.07-3.52,2.54-8.02,3.3-12.18,2.06,0,0,.8,3.8,1.07,5.3"/><path class="cls-12" d="M183.74,72.5s1.63-.83,2.38-1.08c0,0-7.47-3.2-11-3.36-.72,.29-1.4,.69-2,1.18,3.88-.79,7.9,.44,10.68,3.27"/><path class="cls-12" d="M182.4,82.48c1.66,.54,3.27,1.21,4.83,2,0,0-1.64-6.11,1.74-9.17-1.49-.78-3.03-1.45-4.62-2,0,0,3.13,4.55-2,9.15"/><path class="cls-12" d="M168.13,84.91c-6.45-2.67-5.27-7.63-5.27-7.63-1.33,1.12-2.58,2.34-3.73,3.65,3.84,.53,5.39,7.59,5.39,7.59,1.14-1.27,2.34-2.47,3.61-3.61"/><path class="cls-12" d="M187.36,85.71s-3.16,2.59-3.71,3.11c0,0,6.06,2.37,5.57,10.14,1.33-.92,2.56-1.97,3.67-3.14,0,0-3.9-2.64-5.5-10.14"/><path class="cls-12" d="M189.14,99.93l-.18-.13-.06,.22c-1.05,4.14-4.31,7.36-8.47,8.34l-.36,.09,.32,.19s1.86,1.15,2.64,1.57h.1l.08-.09s3.78-3.85,8.74-8.23l.15-.13-.17-.12-2.79-1.71Z"/><path class="cls-12" d="M169.44,91.35s-4.21-1.53-4.75-1.53c0,0,1.37,6.42-1.8,11.5,0,0,2.11,.63,4.76,1.52,0,0-3.32-5.59,1.8-11.5"/><path class="cls-12" d="M168.07,103.7c-.7,1.04-1.48,2.02-2.34,2.94,3.84,1.28,7.57,2.87,11.16,4.76,.86-.81,1.61-1.71,2.26-2.69,0,0-7.58,1.11-11.08-5"/><path class="cls-12" d="M176.15,67.08c-13.11,0-23.74,10.63-23.74,23.74,0,13.11,10.63,23.74,23.74,23.74,13.11,0,23.74-10.63,23.74-23.74h0c0-13.11-10.63-23.74-23.74-23.74m21.78,31c-2.51,7.6-8.8,13.34-16.6,15.15,0-.11,0-.78,1.35-2.4-1.69,.47-3.41,.8-5.15,1,0,0,1.84,1,1.69,1.77-7.91,1.07-15.8-2.05-20.84-8.23,.21-.13,1.39-.58,6.4,.93-.88-1.39-1.67-2.84-2.37-4.33,0,0-3.08,3.64-6.74-.77-2.41-4.81-3.06-10.31-1.84-15.55,1.6-4.86,4.62-4.91,4.62-4.91,.22-1.3,.54-2.58,.95-3.83-1.68,1.56-3.17,3.32-4.44,5.23,4.84-11.71,18.25-17.28,29.96-12.44,3.08,1.27,5.84,3.2,8.1,5.64-1.79-1.3-3.71-2.43-5.71-3.37,.83,.98,1.58,2.02,2.25,3.12,1.57-.34,3.21,.13,4.35,1.27,4.09,4.98,5.91,11.45,5,17.83-1.87,3.84-5.25,2.13-5.25,2.13-.17,1.62-.45,3.23-.84,4.81,4.45-3.57,5.07-3.24,5.16-3"/></svg>